<svg width="28" height="28" viewBox="0 0 28 28" fill="none" xmlns="http://www.w3.org/2000/svg">
<g id="Group" filter="url(#filter0_d_536_3)">
<g id="Group_2">
<path id="Vector" d="M14 20C19.5158 20 24 15.5158 24 10C24 4.48421 19.5158 -1.96011e-07 14 -4.37114e-07C8.48421 -6.78217e-07 4 4.48421 4 10C4 15.5158 8.48421 20 14 20ZM10.5474 9.32632L14.4211 5.47368C14.6105 5.28421 14.8421 5.2 15.0947 5.2C15.3474 5.2 15.5789 5.28421 15.7684 5.47368C16.1263 5.83158 16.1263 6.44211 15.7684 6.8L12.5474 10L15.7474 13.2C16.1053 13.5579 16.1053 14.1684 15.7474 14.5263C15.3895 14.8842 14.7789 14.8842 14.4211 14.5263L10.5474 10.6737C10.3789 10.5053 10.2737 10.2526 10.2737 10C10.2737 9.74737 10.3789 9.51579 10.5474 9.32632Z" fill="#FAFAFA"/>
</g>
</g>
<defs>
<filter id="filter0_d_536_3" x="0" y="0" width="28" height="28" filterUnits="userSpaceOnUse" color-interpolation-filters="sRGB">
<feFlood flood-opacity="0" result="BackgroundImageFix"/>
<feColorMatrix in="SourceAlpha" type="matrix" values="0 0 0 0 0 0 0 0 0 0 0 0 0 0 0 0 0 0 127 0" result="hardAlpha"/>
<feOffset dy="4"/>
<feGaussianBlur stdDeviation="2"/>
<feComposite in2="hardAlpha" operator="out"/>
<feColorMatrix type="matrix" values="0 0 0 0 0 0 0 0 0 0 0 0 0 0 0 0 0 0 0.25 0"/>
<feBlend mode="normal" in2="BackgroundImageFix" result="effect1_dropShadow_536_3"/>
<feBlend mode="normal" in="SourceGraphic" in2="effect1_dropShadow_536_3" result="shape"/>
</filter>
</defs>
</svg>
