<svg width="28" height="28" viewBox="0 0 28 28" fill="none" xmlns="http://www.w3.org/2000/svg">
<g id="Group" filter="url(#filter0_d_536_8)">
<g id="Group_2">
<path id="Vector" d="M14 -2.34446e-06C8.48421 -2.10336e-06 4 4.48421 4 10C4 15.5158 8.48421 20 14 20C19.5158 20 24 15.5158 24 10C24 4.48421 19.5158 -2.58557e-06 14 -2.34446e-06ZM17.4526 10.6737L13.5789 14.5263C13.3895 14.7158 13.1579 14.8 12.9053 14.8C12.6526 14.8 12.4211 14.7158 12.2316 14.5263C11.8737 14.1684 11.8737 13.5579 12.2316 13.2L15.4526 10L12.2526 6.8C11.8947 6.4421 11.8947 5.83158 12.2526 5.47368C12.6105 5.11579 13.2211 5.11579 13.5789 5.47368L17.4526 9.32631C17.6211 9.49474 17.7263 9.74737 17.7263 10C17.7263 10.2526 17.6211 10.4842 17.4526 10.6737Z" fill="#FAFAFA"/>
</g>
</g>
<defs>
<filter id="filter0_d_536_8" x="0" y="0" width="28" height="28" filterUnits="userSpaceOnUse" color-interpolation-filters="sRGB">
<feFlood flood-opacity="0" result="BackgroundImageFix"/>
<feColorMatrix in="SourceAlpha" type="matrix" values="0 0 0 0 0 0 0 0 0 0 0 0 0 0 0 0 0 0 127 0" result="hardAlpha"/>
<feOffset dy="4"/>
<feGaussianBlur stdDeviation="2"/>
<feComposite in2="hardAlpha" operator="out"/>
<feColorMatrix type="matrix" values="0 0 0 0 0 0 0 0 0 0 0 0 0 0 0 0 0 0 0.25 0"/>
<feBlend mode="normal" in2="BackgroundImageFix" result="effect1_dropShadow_536_8"/>
<feBlend mode="normal" in="SourceGraphic" in2="effect1_dropShadow_536_8" result="shape"/>
</filter>
</defs>
</svg>
