<svg width="49" height="34" viewBox="0 0 49 34" fill="none" xmlns="http://www.w3.org/2000/svg">
<g id="Group 573">
<path id="&#226;&#128;&#156;" d="M23.88 8.5H19.32L13.86 15.04C12.6 16.54 12 17.98 12 19.6C12 22.84 14.52 25.36 17.76 25.36C20.88 25.36 23.4 22.9 23.4 19.84C23.4 17.32 21.9 15.76 18.84 15.04L23.88 8.5ZM36.36 8.5H31.86L26.34 15.04C25.08 16.6 24.48 17.98 24.48 19.6C24.48 22.84 27 25.36 30.24 25.36C33.36 25.36 35.88 22.9 35.88 19.84C35.88 17.32 34.38 15.76 31.32 15.04L36.36 8.5Z" fill="#B2B5BE"/>
</g>
</svg>
