<svg width="64" height="64" viewBox="0 0 64 64" fill="none" xmlns="http://www.w3.org/2000/svg">
<path d="M32 57.8027C17.7881 57.8027 6.13379 46.1484 6.13379 31.9629C6.13379 17.751 17.7881 6.09668 31.9736 6.09668C46.1855 6.09668 57.8398 17.751 57.8398 31.9629C57.8398 46.1484 46.1855 57.8027 32 57.8027ZM32 55.7988C45.1572 55.7988 55.8359 45.1201 55.8359 31.9629C55.8359 18.8057 45.1572 8.10059 31.9736 8.10059C18.8164 8.10059 8.1377 18.8057 8.1377 31.9629C8.1377 45.1201 18.8164 55.7988 32 55.7988ZM26.8584 42.2988C25.9355 42.8525 24.8545 42.3779 24.8545 41.4023V22.5234C24.8545 21.5479 25.9619 21.0996 26.8584 21.627L41.9932 30.8555C42.916 31.4092 42.916 32.5957 41.9932 33.1758L26.8584 42.2988Z" fill="#31313B"/>
</svg>
