<svg width="50" height="42" viewBox="0 0 50 42" fill="none" xmlns="http://www.w3.org/2000/svg">
<path d="M18.511 1C18.2552 1 17.9995 1.10655 17.8077 1.28769C17.4241 1.67128 17.4241 2.29995 17.8077 2.68354L24.0197 8.89558V20.0091H13.098L6.88599 13.797C6.5024 13.4134 5.87374 13.4134 5.49015 13.797C5.10656 14.1806 5.10656 14.8093 5.49015 15.1929L11.1908 20.8934L5.28769 26.7965C4.9041 27.1801 4.9041 27.8087 5.28769 28.1923C5.67128 28.5759 6.29994 28.5759 6.68353 28.1923L12.8956 21.9803H24.0197V32.902L17.8077 39.114C17.4241 39.4976 17.4241 40.1263 17.8077 40.5099C18.1913 40.8934 18.8199 40.8934 19.2035 40.5099L24.9041 34.8093L30.8071 40.7123C31.1907 41.0959 31.8194 41.0959 32.203 40.7123C32.5866 40.3287 32.5866 39.7001 32.203 39.3165L25.9909 33.1044V21.9803H37.1044L43.3164 28.1923C43.7 28.5759 44.3287 28.5759 44.7123 28.1923C45.0959 27.8087 45.0959 27.1801 44.7123 26.7965L38.9158 21L44.7123 15.2035C44.8934 15.0224 45 14.7666 45 14.5003C45 14.2445 44.8934 13.9888 44.7123 13.797C44.3287 13.4134 43.7 13.4134 43.3164 13.797L37.1044 20.0091H25.9909V8.89558L32.203 2.68354C32.5866 2.29995 32.5866 1.67128 32.203 1.28769C31.8194 0.904102 31.1907 0.904102 30.8071 1.28769L25.0107 7.08418L19.2142 1.28769C19.033 1.10655 18.7773 1 18.511 1ZM14.6004 9.54555C14.3447 9.54555 14.089 9.65211 13.8972 9.83325C13.5136 10.2168 13.5136 10.8455 13.8972 11.2291L18.5535 15.8855C18.9371 16.269 19.5658 16.269 19.9494 15.8855C20.333 15.5019 20.333 14.8732 19.9494 14.4896L15.293 9.83325C15.1119 9.64145 14.8562 9.54555 14.5898 9.54555H14.6004ZM35.4102 9.54555C35.1439 9.54555 34.8987 9.65211 34.7069 9.83325L30.0506 14.4896C29.667 14.8732 29.667 15.5019 30.0506 15.8855C30.4342 16.269 31.0628 16.269 31.4464 15.8855L36.1029 11.2291C36.4864 10.8455 36.4864 10.2168 36.1029 9.83325C35.9217 9.64145 35.666 9.54555 35.3996 9.54555H35.4102ZM19.2568 25.8268C18.9904 25.8268 18.7453 25.9334 18.5535 26.1145L13.8972 30.7709C13.5136 31.1545 13.5136 31.7832 13.8972 32.1668C14.2808 32.5503 14.9094 32.5503 15.293 32.1668L19.9494 27.5104C20.333 27.1268 20.333 26.4981 19.9494 26.1145C19.7683 25.9334 19.5126 25.8268 19.2462 25.8268H19.2568ZM30.7539 25.8268C30.4875 25.8268 30.2424 25.9334 30.0506 26.1145C29.667 26.4981 29.667 27.1268 30.0506 27.5104L34.7069 32.1668C35.0905 32.5503 35.7193 32.5503 36.1029 32.1668C36.4864 31.7832 36.4864 31.1545 36.1029 30.7709L31.4464 26.1145C31.2653 25.9334 31.0096 25.8268 30.7432 25.8268H30.7539Z" fill="black" stroke="black" stroke-width="0.5"/>
</svg>
