<svg width="50" height="42" viewBox="0 0 50 42" fill="none" xmlns="http://www.w3.org/2000/svg">
<path d="M25.1934 1.00752C19.264 1.02255 14.1081 4.91624 12.402 10.4711C7.23093 10.5237 3 14.5903 3 19.6266C3 24.6628 7.27642 28.8045 12.493 28.8045H24.8066H37.507C42.7236 28.8045 47 24.7004 47 19.6266C47 14.5527 42.9965 10.8394 38.0453 10.5538C36.362 4.93879 31.1682 1.00752 25.2009 1L25.1934 1.00752ZM25.1934 3.26255C30.4024 3.26255 34.9138 6.8255 36.0815 11.8542C36.2104 12.4029 36.726 12.7788 37.2871 12.7262C37.3629 12.7262 37.4387 12.7111 37.5146 12.7111C41.5256 12.7111 44.7177 15.8156 44.7177 19.6266C44.7177 23.4376 41.518 26.5495 37.4994 26.5495H12.4854C8.46683 26.5495 5.26712 23.4451 5.26712 19.6266C5.26712 15.808 8.46683 12.7036 12.4854 12.7036C12.6977 12.7036 12.91 12.7111 13.1223 12.7337C13.691 12.7863 14.2066 12.4105 14.3279 11.8617C15.4956 6.83301 19.9843 3.27006 25.1934 3.26255ZM17.9447 27.008C17.5959 27.0231 17.2775 27.1884 17.0727 27.4665L14.4872 30.9468C14.3052 31.1873 14.2294 31.488 14.2749 31.7887C14.3204 32.0818 14.4872 32.3524 14.7298 32.5253C14.9724 32.7057 15.2757 32.7809 15.5714 32.7358C15.8671 32.6907 16.1401 32.5328 16.3145 32.2848L18.9 28.8045C19.2716 28.3084 19.1579 27.5943 18.6574 27.2335C18.4527 27.0832 18.1949 27.008 17.9371 27.0155L17.9447 27.008ZM8.54267 33.9836C8.19388 33.9986 7.87541 34.164 7.67069 34.4421L5.08513 37.9224C4.90315 38.1629 4.82733 38.4636 4.87282 38.7567C4.91832 39.0499 5.08513 39.3205 5.32777 39.4934C5.5704 39.6663 5.8737 39.7489 6.16941 39.6963C6.46512 39.6512 6.73807 39.4934 6.91246 39.2528L9.49802 35.7726C9.86955 35.269 9.75581 34.5624 9.25538 34.194C9.05066 34.0437 8.79288 33.9685 8.53508 33.9761L8.54267 33.9836ZM22.7973 31.1197C22.4561 31.1347 22.1301 31.3001 21.9254 31.5782L19.3398 35.0585C19.1654 35.299 19.0896 35.5997 19.1351 35.8928C19.1806 36.186 19.3398 36.4566 19.5825 36.6295C20.0905 36.9978 20.8032 36.8926 21.1747 36.3889L23.7603 32.9087C24.1318 32.4051 24.0181 31.6985 23.5177 31.3302C23.313 31.1798 23.0551 31.1047 22.7973 31.1122V31.1197ZM38.3183 32.6832C38.3183 32.6306 38.3107 32.5704 38.2955 32.5253C38.288 32.4727 38.2652 32.4276 38.25 32.375C38.25 32.3675 38.2425 32.3524 38.2425 32.3449C38.2197 32.2998 38.197 32.2547 38.1742 32.2096C38.1666 32.2021 38.159 32.1871 38.1515 32.172C38.1211 32.1345 38.0908 32.0894 38.0605 32.0518C38.0226 32.0142 37.9847 31.9766 37.9392 31.939C37.9316 31.939 37.924 31.9315 37.9164 31.924C37.8785 31.8939 37.833 31.8639 37.7875 31.8338C37.7875 31.8338 37.7875 31.8338 37.7799 31.8338C37.7345 31.8112 37.6889 31.7962 37.651 31.7737C37.6359 31.7737 37.6207 31.7661 37.6131 31.7586C37.5676 31.7436 37.5146 31.7286 37.4691 31.721C37.4615 31.721 37.4463 31.721 37.4387 31.721C37.3857 31.7135 37.3326 31.7135 37.2795 31.706H31.1833L34.5954 27.0155H31.9947L28.2718 32.142C28.0443 32.4577 28.0064 32.8786 28.1883 33.2319C28.3703 33.5777 28.7343 33.8032 29.1286 33.8032H35.2247L31.2061 39.3355C31.0469 39.561 30.9786 39.8467 31.0241 40.1173C31.0696 40.3954 31.2213 40.6359 31.4487 40.8013C31.6762 40.9667 31.9568 41.0268 32.2373 40.9892C32.5103 40.9441 32.7605 40.7938 32.9273 40.5683L38.1515 33.3822C38.2121 33.292 38.2652 33.2018 38.2955 33.0966C38.2955 33.0966 38.2955 33.0891 38.2955 33.0816C38.3259 32.9839 38.341 32.8861 38.341 32.7884C38.341 32.7809 38.341 32.7734 38.341 32.7659V32.7283C38.341 32.7283 38.341 32.7057 38.341 32.6982L38.3183 32.6832Z" fill="black" stroke="black" stroke-width="0.3"/>
</svg>
