<svg width="50" height="40" viewBox="0 0 50 40" fill="none" xmlns="http://www.w3.org/2000/svg">
<path d="M30.9427 24.6236V4.44268C30.9427 3.26441 30.4746 2.1344 29.6415 1.30123C28.8083 0.468067 27.6783 0 26.5 0C25.3217 0 24.1917 0.468067 23.3586 1.30123C22.5254 2.1344 22.0573 3.26441 22.0573 4.44268V24.6236C20.5297 25.5867 19.3564 27.0203 18.7143 28.7083C18.0722 30.3962 17.996 32.2472 18.4973 33.9822C18.9986 35.7172 20.0502 37.2423 21.4936 38.3277C22.937 39.4131 24.694 40 26.5 40C28.306 40 30.063 39.4131 31.5064 38.3277C32.9498 37.2423 34.0014 35.7172 34.5027 33.9822C35.004 32.2472 34.9279 30.3962 34.2857 28.7083C33.6436 27.0203 32.4704 25.5867 30.9427 24.6236ZM26.5 37.7628C25.2981 37.7664 24.1219 37.4147 23.1192 36.7518C22.1165 36.089 21.3321 35.1446 20.8645 34.0374C20.3969 32.9301 20.267 31.7093 20.4911 30.5284C20.7152 29.3476 21.2833 28.2592 22.124 27.4002C22.7305 26.7729 23.4656 26.2842 24.2787 25.9675V4.44268C24.2787 3.85354 24.5127 3.28854 24.9293 2.87196C25.3459 2.45537 25.9109 2.22134 26.5 2.22134C27.0891 2.22134 27.6542 2.45537 28.0707 2.87196C28.4873 3.28854 28.7214 3.85354 28.7214 4.44268V25.9675C29.8652 26.4156 30.8478 27.1977 31.5411 28.2119C32.2344 29.2261 32.6064 30.4256 32.6087 31.6541C32.6058 33.2733 31.9612 34.8254 30.8163 35.9703C29.6713 37.1153 28.1192 37.7598 26.5 37.7628Z" fill="black"/>
<path d="M30.1763 29.155C29.743 28.5234 29.1538 28.0146 28.4659 27.6778C28.1949 27.5362 27.9078 27.428 27.6107 27.3557V11.1066C27.6107 10.8121 27.4936 10.5296 27.2854 10.3213C27.0771 10.113 26.7946 9.99597 26.5 9.99597C26.2054 9.99597 25.9229 10.113 25.7146 10.3213C25.5063 10.5296 25.3893 10.8121 25.3893 11.1066V27.3557C25.0922 27.428 24.805 27.5362 24.5341 27.6778C23.8462 28.0146 23.257 28.5234 22.8237 29.155C22.3234 29.8923 22.0564 30.763 22.0573 31.654C22.0573 32.8323 22.5254 33.9623 23.3585 34.7955C24.1917 35.6287 25.3217 36.0967 26.5 36.0967C27.6783 36.0967 28.8083 35.6287 29.6414 34.7955C30.4746 33.9623 30.9427 32.8323 30.9427 31.654C30.9436 30.763 30.6766 29.8923 30.1763 29.155ZM26.5 33.8754C25.9109 33.8754 25.3459 33.6413 24.9293 33.2248C24.5127 32.8082 24.2787 32.2432 24.2787 31.654C24.2761 31.2973 24.364 30.9458 24.5341 30.6322C24.7248 30.2549 25.0222 29.9421 25.3893 29.7326C25.727 29.5376 26.1101 29.435 26.5 29.435C26.8899 29.435 27.273 29.5376 27.6107 29.7326C27.9778 29.9421 28.2752 30.2549 28.4659 30.6322C28.636 30.9458 28.7239 31.2973 28.7213 31.654C28.7213 32.2432 28.4873 32.8082 28.0707 33.2248C27.6541 33.6413 27.0891 33.8754 26.5 33.8754Z" fill="black"/>
<circle cx="14.5" cy="3.5" r="2.75" stroke="black" stroke-width="1.5"/>
</svg>
