<svg width="50" height="40" viewBox="0 0 50 40" fill="none" xmlns="http://www.w3.org/2000/svg">
<g clip-path="url(#clip0_1553_9)">
<path d="M8.58755 26.288H8.57895H8.58755Z" fill="black" stroke="black" stroke-width="0.5"/>
<path d="M20.137 12.3933C20.5114 12.7667 21.1247 12.7667 21.4991 12.3933C21.8735 12.0199 21.8735 11.4082 21.4991 11.0348L16.433 5.98218C16.1861 5.73591 15.8356 5.64057 15.501 5.72796C15.3417 5.77563 15.1904 5.85507 15.0709 5.98218C14.6965 6.35557 14.6965 6.96729 15.0709 7.34067L20.137 12.3933Z" fill="black" stroke="black" stroke-width="0.5"/>
<path d="M29.5364 9.07249C30.0701 9.07249 30.5002 8.6435 30.5002 8.11122V0.961271C30.5002 0.428997 30.0701 0 29.5364 0C29.0027 0 28.5726 0.428997 28.5726 0.961271V8.11122C28.5726 8.6435 29.0027 9.07249 29.5364 9.07249Z" fill="black" stroke="black" stroke-width="0.5"/>
<path d="M49.0362 19.4479H41.8751C41.3414 19.4479 40.9113 19.8769 40.9113 20.4091C40.9113 20.9414 41.3414 21.3704 41.8751 21.3704H49.0362C49.5698 21.3704 50 20.9414 50 20.4091C50 19.8769 49.5698 19.4479 49.0362 19.4479Z" fill="black" stroke="black" stroke-width="0.5"/>
<path d="M44.2887 6.65741C44.2887 6.40319 44.1851 6.15691 44.0099 5.98214C43.7629 5.73586 43.4124 5.64053 43.0779 5.73586C42.9186 5.77558 42.7672 5.86297 42.6477 5.98214L37.5816 11.0348C37.2072 11.4082 37.2072 12.0199 37.5816 12.3933C37.956 12.7666 38.5694 12.7666 38.9437 12.3933L44.0099 7.34063C44.1931 7.1579 44.2887 6.91163 44.2887 6.65741Z" fill="black" stroke="black" stroke-width="0.5"/>
<path d="M37.7967 20.4091C37.7967 15.8729 34.0848 12.1708 29.5364 12.1708C26.2864 12.1708 23.4746 14.0615 22.1284 16.7944C21.0769 16.4687 19.9618 16.2939 18.8147 16.2939C13.7805 16.3019 9.41533 19.6306 7.97355 24.3654C3.59248 24.3972 0 27.8689 0 32.1668C0 36.4965 3.63231 40 8.05321 40H29.2656C33.6865 40 37.3188 36.4965 37.3188 32.1668C37.3188 29.99 36.3868 28.0516 34.9132 26.6534C36.6815 25.144 37.8126 22.9036 37.8126 20.4012L37.7967 20.4091ZM35.3831 32.1668C35.3831 35.424 32.6669 38.0695 29.2656 38.0695H18.8227H8.05321C4.64394 38.0695 1.93564 35.424 1.93564 32.1668C1.93564 28.9096 4.6519 26.2641 8.05321 26.2641C8.22845 26.2641 8.41166 26.2641 8.5869 26.288C9.06484 26.3277 9.50295 26.0099 9.61446 25.5491C10.6022 21.2592 14.4097 18.2165 18.8227 18.2085C19.7467 18.2085 20.6388 18.3515 21.4832 18.5978C22.1204 18.7805 22.7258 19.0268 23.2993 19.3366C25.6412 20.5918 27.4176 22.8083 28.0468 25.5412C28.1584 26.0099 28.5885 26.3277 29.0744 26.288C29.1381 26.288 29.2018 26.28 29.2656 26.2721C29.8949 26.2721 30.5002 26.3674 31.0658 26.5342C31.9022 26.7805 32.6509 27.2016 33.2882 27.7418C34.5627 28.8222 35.3752 30.4111 35.3752 32.1748L35.3831 32.1668ZM33.3121 25.4776C32.2447 24.8739 31.018 24.5084 29.7196 24.429C28.8036 21.3624 26.6688 18.8917 23.9207 17.5015C24.9721 15.4756 27.091 14.0933 29.5444 14.0933C33.0492 14.0933 35.877 16.9056 35.877 20.4091C35.877 22.4985 34.8654 24.3336 33.3121 25.4776Z" fill="black" stroke="black" stroke-width="0.5"/>
</g>
<defs>
<clipPath id="clip0_1553_9">
<rect width="50" height="40" fill="white"/>
</clipPath>
</defs>
</svg>
