<svg width="50" height="42" viewBox="0 0 50 42" fill="none" xmlns="http://www.w3.org/2000/svg">
<path d="M38.6446 10.8724C36.8845 5.07014 31.4536 1.00777 25.2061 1C19.0062 1.01553 13.6149 5.03907 11.8311 10.7792C6.42397 10.8336 2 15.0358 2 20.24C2 25.4441 6.47153 29.724 11.9262 29.724H16.6356L10.5546 39.1381C10.3643 39.3867 10.285 39.6974 10.3326 40.0081C10.3802 40.311 10.5546 40.5906 10.8083 40.7693C11.062 40.9557 11.3792 41.0334 11.6884 40.9868C11.9976 40.9402 12.283 40.7771 12.4653 40.5207L19.4423 29.724H21.3133L15.2323 39.1381C15.0421 39.3867 14.9628 39.6974 15.0103 40.0081C15.0579 40.311 15.2323 40.5906 15.486 40.7693C15.7397 40.9557 16.0569 41.0334 16.3661 40.9868C16.6753 40.9402 16.9607 40.7771 17.143 40.5207L24.1199 29.724H24.8018H26.8156L20.7346 39.1381C20.5443 39.3867 20.465 39.6974 20.5126 40.0081C20.5601 40.311 20.7345 40.5906 20.9883 40.7693C21.242 40.9557 21.5591 41.0334 21.8683 40.9868C22.1775 40.9402 22.4629 40.7771 22.6453 40.5207L29.6222 29.724H32.1276L26.0465 39.1381C25.8562 39.3867 25.777 39.6974 25.8246 40.0081C25.8721 40.311 26.0465 40.5906 26.3002 40.7693C26.5539 40.9557 26.8711 41.0334 27.1803 40.9868C27.4895 40.9402 27.7749 40.7771 27.9573 40.5207L34.9342 29.724H38.0738C43.5285 29.724 48 25.483 48 20.24C48 14.9969 43.8139 11.1598 38.6367 10.8647L38.6446 10.8724Z" fill="black" stroke="black" stroke-width="0.3"/>
</svg>
