<svg width="50" height="42" viewBox="0 0 50 42" fill="none" xmlns="http://www.w3.org/2000/svg">
<path d="M25.6977 1.00777C19.6336 1.0233 14.3605 5.04644 12.6157 10.786C7.32707 10.8404 3 15.0422 3 20.2459C3 25.4495 7.37359 29.729 12.7088 29.729H25.3023H38.2912C43.6264 29.729 48 25.4884 48 20.2459C48 15.0033 43.9056 11.1666 38.8418 10.8715C37.1203 5.06974 31.8084 1.00777 25.7055 1L25.6977 1.00777ZM25.6977 3.33777C31.0252 3.33777 35.6392 7.01918 36.8334 12.2151C36.9652 12.7821 37.4925 13.1704 38.0663 13.116C38.1439 13.116 38.2214 13.1005 38.299 13.1005C42.4012 13.1005 45.6659 16.3081 45.6659 20.2459C45.6659 24.1836 42.3934 27.399 38.2835 27.399H12.701C8.59108 27.399 5.31862 24.1913 5.31862 20.2459C5.31862 16.3004 8.59108 13.0927 12.701 13.0927C12.9182 13.0927 13.1353 13.1005 13.3524 13.1238C13.934 13.1782 14.4613 12.7898 14.5854 12.2229C15.7796 7.02695 20.3703 3.34554 25.6977 3.33777ZM26.8222 27.8727C26.4654 27.8883 26.1398 28.0591 25.9304 28.3465L23.2861 31.9425C23.1 32.191 23.0224 32.5017 23.0689 32.8124C23.1155 33.1153 23.2861 33.3949 23.5342 33.5735C23.7824 33.7599 24.0925 33.8376 24.395 33.791C24.6974 33.7444 24.9766 33.5813 25.1549 33.325L27.7992 29.729C28.1792 29.2164 28.0629 28.4785 27.5511 28.1057C27.3417 27.9504 27.0781 27.8727 26.8144 27.8805L26.8222 27.8727ZM17.2065 35.0802C16.8497 35.0958 16.524 35.2666 16.3147 35.554L13.6704 39.15C13.4842 39.3985 13.4067 39.7092 13.4532 40.0121C13.4998 40.315 13.6703 40.5946 13.9185 40.7732C14.1666 40.9518 14.4768 41.0373 14.7793 40.9829C15.0817 40.9363 15.3608 40.7732 15.5392 40.5247L18.1835 36.9287C18.5635 36.4083 18.4472 35.6783 17.9354 35.2977C17.726 35.1424 17.4623 35.0647 17.1987 35.0725L17.2065 35.0802ZM29.3036 35.0802C28.9547 35.0958 28.6212 35.2666 28.4118 35.554L25.7675 39.15C25.5892 39.3985 25.5116 39.7092 25.5582 40.0121C25.6047 40.315 25.7675 40.5946 26.0157 40.7732C26.5352 41.1538 27.2642 41.045 27.6441 40.5247L30.2885 36.9287C30.6684 36.4083 30.5521 35.6783 30.0403 35.2977C29.8309 35.1424 29.5673 35.0647 29.3036 35.0725V35.0802Z" fill="black" stroke="black" stroke-width="0.3"/>
</svg>
