<svg width="50" height="42" viewBox="0 0 50 42" fill="none" xmlns="http://www.w3.org/2000/svg">
<path d="M25.2021 1.00776C19.0033 1.02329 13.613 5.04527 11.8294 10.7832C6.42325 10.8375 2 15.0381 2 20.2402C2 25.4424 6.4708 29.7206 11.9245 29.7206H24.7979H38.0755C43.5292 29.7206 48 25.4812 48 20.2402C48 14.9993 43.8146 11.1636 38.6383 10.8686C36.8785 5.06856 31.4486 1.00776 25.2101 1L25.2021 1.00776ZM25.2101 3.33709C30.6559 3.33709 35.3724 7.01743 36.5931 12.2118C36.7279 12.7786 37.2669 13.1669 37.8535 13.1125C37.9328 13.1125 38.0121 13.097 38.0913 13.097C42.2847 13.097 45.6219 16.3037 45.6219 20.2402C45.6219 24.1768 42.2767 27.3913 38.0755 27.3913H11.9245C7.72326 27.3913 4.37808 24.1846 4.37808 20.2402C4.37808 16.2959 7.72326 13.0892 11.9245 13.0892C12.1465 13.0892 12.3684 13.097 12.5904 13.1203C13.1849 13.1746 13.7239 12.7864 13.8508 12.2196C15.0715 7.02519 19.7643 3.34486 25.2101 3.33709ZM18.4484 27.8649C18.0837 27.8804 17.7508 28.0513 17.5368 28.3385L10.5611 39.1389C10.3709 39.3873 10.2916 39.6979 10.3391 40.0085C10.3867 40.3113 10.5611 40.5908 10.8148 40.7694C11.0684 40.9557 11.3855 41.0334 11.6946 40.9868C12.0038 40.9402 12.2892 40.7772 12.4715 40.5209L19.4472 29.7206C19.8356 29.2082 19.7167 28.4705 19.1935 28.0978C18.9795 27.9426 18.71 27.8649 18.4405 27.8727L18.4484 27.8649ZM23.1253 27.8649C22.7606 27.8804 22.4277 28.0513 22.2137 28.3385L15.238 39.1389C15.0477 39.3873 14.9685 39.6979 15.016 40.0085C15.0636 40.3113 15.238 40.5908 15.4917 40.7694C15.7453 40.9557 16.0624 41.0334 16.3715 40.9868C16.6807 40.9402 16.9661 40.7772 17.1484 40.5209L24.1241 29.7206C24.5125 29.2082 24.3936 28.4705 23.8704 28.0978C23.6564 27.9426 23.3869 27.8649 23.1174 27.8727L23.1253 27.8649ZM28.6266 27.8649C28.2619 27.8804 27.929 28.0513 27.715 28.3385L20.7393 39.1389C20.549 39.3873 20.4698 39.6979 20.5173 40.0085C20.5649 40.3113 20.7393 40.5908 20.9929 40.7694C21.2466 40.9557 21.5637 41.0334 21.8728 40.9868C22.182 40.9402 22.4673 40.7772 22.6496 40.5209L29.6254 29.7206C30.0138 29.2082 29.8949 28.4705 29.3717 28.0978C29.1577 27.9426 28.8882 27.8649 28.6186 27.8727L28.6266 27.8649ZM33.9455 27.8649C33.5809 27.8804 33.248 28.0513 33.034 28.3385L26.0583 39.1389C25.868 39.3873 25.7887 39.6979 25.8363 40.0085C25.8838 40.3113 26.0582 40.5908 26.3119 40.7694C26.5655 40.9557 26.8827 41.0334 27.1918 40.9868C27.501 40.9402 27.7863 40.7772 27.9686 40.5209L34.9443 29.7206C35.3327 29.2082 35.2138 28.4705 34.6907 28.0978C34.4766 27.9426 34.2071 27.8649 33.9376 27.8727L33.9455 27.8649Z" fill="black" stroke="black" stroke-width="0.3"/>
</svg>
