<svg width="50" height="42" viewBox="0 0 50 42" fill="none" xmlns="http://www.w3.org/2000/svg">
<path d="M24.9969 1C24.4753 1 24.0542 1.42112 24.0542 1.9428V8.95097C24.0542 9.47266 24.4753 9.89378 24.9969 9.89378C25.5185 9.89378 25.9395 9.47266 25.9395 8.95097V1.9428C25.9395 1.42112 25.5185 1 24.9969 1ZM11.2844 6.61282C11.1273 6.65682 10.9764 6.73853 10.8633 6.85795C10.4925 7.2225 10.4925 7.8259 10.8633 8.19045L15.8154 13.1433C16.1862 13.5141 16.7832 13.5141 17.1477 13.1433C17.5122 12.7725 17.5185 12.1754 17.1477 11.8108L12.1956 6.85795C11.9568 6.61911 11.6112 6.52483 11.2844 6.61282ZM38.2317 6.61911C38.0746 6.6631 37.9238 6.74481 37.8107 6.86424L32.8586 11.8171C32.4878 12.1879 32.4878 12.785 32.8586 13.1496C33.2294 13.5204 33.8264 13.5204 34.1909 13.1496L39.143 8.19673C39.3189 8.02074 39.4195 7.7819 39.4195 7.53048C39.4195 7.27907 39.3189 7.04023 39.143 6.86424C38.9042 6.62539 38.5585 6.53111 38.2317 6.61911ZM24.9969 12.9296C20.5475 12.9296 16.9214 16.5563 16.9214 21.0063C16.9214 25.4563 20.5475 29.083 24.9969 29.083C29.4462 29.083 33.0723 25.4563 33.0723 21.0063C33.0723 16.5563 29.4462 12.9296 24.9969 12.9296ZM24.9969 14.8152C28.4281 14.8152 31.187 17.5745 31.187 21.0063C31.187 24.4381 28.4281 27.1974 24.9969 27.1974C21.5656 27.1974 18.8068 24.4381 18.8068 21.0063C18.8068 17.5745 21.5656 14.8152 24.9969 14.8152ZM5.94266 20.0572C5.42105 20.0572 5 20.4783 5 21C5 21.5217 5.42105 21.9428 5.94266 21.9428H12.9497C13.4713 21.9428 13.8924 21.5217 13.8924 21C13.8924 20.4783 13.4713 20.0572 12.9497 20.0572H5.94266ZM37.0566 20.0572C36.535 20.0572 36.1139 20.4783 36.1139 21C36.1139 21.5217 36.535 21.9428 37.0566 21.9428H44.0573C44.5789 21.9428 45 21.5217 45 21C45 20.4783 44.5789 20.0572 44.0573 20.0572H37.0566ZM16.2302 28.6178C16.0731 28.6618 15.9285 28.7436 15.8091 28.863L10.857 33.8158C10.4863 34.1867 10.4863 34.7838 10.857 35.1483C11.033 35.3306 11.2718 35.4249 11.5232 35.4249C11.7745 35.4249 12.0134 35.3243 12.1893 35.1483L17.1414 30.1955C17.5122 29.8309 17.5122 29.2275 17.1414 28.863C16.9026 28.6241 16.557 28.5299 16.2302 28.6178ZM33.2797 28.6178C33.1225 28.6618 32.9717 28.7436 32.8586 28.863C32.4878 29.2338 32.4878 29.8309 32.8586 30.1955L37.8107 35.1483C38.1815 35.5129 38.7785 35.5129 39.143 35.1483C39.5137 34.7838 39.5137 34.1804 39.143 33.8158L34.1909 28.863C33.9521 28.6241 33.6064 28.5299 33.2797 28.6178ZM25.0031 32.1125C24.4815 32.1125 24.0605 32.5336 24.0605 33.0553V40.0572C24.0605 40.5789 24.4815 41 25.0031 41C25.5247 41 25.9458 40.5789 25.9458 40.0572V33.049C25.9458 32.5273 25.5247 32.1062 25.0031 32.1062V32.1125Z" fill="black" stroke="black"/>
</svg>
