<svg width="50" height="42" viewBox="0 0 50 42" fill="none" xmlns="http://www.w3.org/2000/svg">
<path d="M25.1933 1.00777C19.264 1.0233 14.108 5.04644 12.402 10.786C7.23091 10.8404 3 15.0422 3 20.2459C3 25.4495 7.2764 29.729 12.493 29.729H24.8066H37.507C42.7236 29.729 47 25.4884 47 20.2459C47 15.0033 42.9966 11.1666 38.0453 10.8715C36.3621 5.06974 31.1682 1.00777 25.2009 1L25.1933 1.00777ZM25.2009 3.33777C30.41 3.33777 34.9214 7.01918 36.0891 12.2151C36.218 12.7821 36.7336 13.1704 37.2947 13.116C37.3705 13.116 37.4463 13.1005 37.5221 13.1005C41.5332 13.1005 44.7253 16.3081 44.7253 20.2459C44.7253 24.1836 41.5256 27.399 37.507 27.399H12.493C8.4744 27.399 5.27469 24.1913 5.27469 20.2459C5.27469 16.3004 8.4744 13.0927 12.493 13.0927C12.7053 13.0927 12.9176 13.1005 13.1299 13.1238C13.6986 13.1782 14.2142 12.7898 14.3355 12.2229C15.5032 7.02695 19.9919 3.34554 25.2009 3.33777ZM17.9523 27.8727C17.6035 27.8883 17.285 28.0591 17.0803 28.3465L14.4947 31.9425C14.3127 32.191 14.2369 32.5017 14.2824 32.8124C14.3279 33.1153 14.4947 33.3949 14.7374 33.5735C14.98 33.7599 15.2833 33.8376 15.579 33.791C15.8747 33.7444 16.1477 33.5813 16.3221 33.325L18.9076 29.729C19.2792 29.2164 19.1654 28.4785 18.665 28.1057C18.4603 27.9504 18.2025 27.8727 17.9447 27.8805L17.9523 27.8727ZM33.223 27.8727C32.8818 27.8883 32.5557 28.0591 32.351 28.3465L29.7655 31.9425C29.5911 32.191 29.5153 32.5017 29.5607 32.8124C29.6062 33.1153 29.7655 33.3949 30.0081 33.5735C30.5161 33.9541 31.2288 33.8453 31.6004 33.325L34.1859 29.729C34.5575 29.2164 34.4437 28.4785 33.9433 28.1057C33.7386 27.9504 33.4808 27.8727 33.223 27.8805V27.8727ZM8.55022 35.0802C8.20143 35.0958 7.88298 35.2666 7.67826 35.554L5.09269 39.15C4.91072 39.3985 4.8349 39.7092 4.88039 40.0121C4.92589 40.315 5.0927 40.5946 5.33533 40.7732C5.57797 40.9518 5.88127 41.0373 6.17698 40.9829C6.47269 40.9363 6.74564 40.7732 6.92003 40.5247L9.50559 36.9287C9.87712 36.4083 9.76338 35.6783 9.26295 35.2977C9.05823 35.1424 8.80045 35.0647 8.54265 35.0725L8.55022 35.0802ZM39.1068 35.0802C38.7581 35.0958 38.4396 35.2666 38.2349 35.554L35.6493 39.15C35.4749 39.3985 35.3991 39.7092 35.4446 40.0121C35.4901 40.315 35.6493 40.5946 35.8919 40.7732C36.1346 40.9518 36.4379 41.0373 36.7412 40.9829C37.0369 40.9363 37.3098 40.7732 37.4842 40.5247L40.0698 36.9287C40.4413 36.4083 40.3352 35.6783 39.8271 35.2977C39.6224 35.1424 39.3646 35.0647 39.1068 35.0725V35.0802ZM23.8285 35.0802C23.4873 35.0958 23.1613 35.2666 22.9566 35.554L20.371 39.15C20.1966 39.3985 20.1208 39.7092 20.1663 40.0121C20.2118 40.315 20.371 40.5946 20.6136 40.7732C21.1216 41.1538 21.8344 41.045 22.2059 40.5247L24.7915 36.9287C25.163 36.4083 25.0493 35.6783 24.5488 35.2977C24.3441 35.1424 24.0863 35.0647 23.8285 35.0725V35.0802Z" fill="black" stroke="black" stroke-width="0.3"/>
</svg>
