<svg width="50" height="40" viewBox="0 0 50 40" fill="none" xmlns="http://www.w3.org/2000/svg">
<g clip-path="url(#clip0_1553_33)">
<path d="M49 18.8875C49 13.9325 45.0104 9.97814 40.0884 9.68667C38.4156 3.9932 33.2628 0 27.3121 0C21.4095 0.00971581 16.2855 3.96405 14.5936 9.59922C9.4504 9.6478 5.23972 13.777 5.23972 18.8875C5.23972 20.3546 5.59542 21.744 6.21068 22.9779C3.68235 24.6393 2 27.4666 2 30.6923C2 35.8416 6.25874 40 11.4404 40H36.3199C41.5015 40 45.7603 35.8416 45.7603 30.6923C45.7603 29.2252 45.4046 27.8455 44.7797 26.6213C47.3177 24.9502 49 22.1132 48.9904 18.8778L49 18.8875ZM43.5011 30.6923C43.5011 34.5689 40.3191 37.7168 36.3199 37.7168H24.0724H11.4404C7.44119 37.7168 4.25915 34.5689 4.25915 30.6923C4.25915 28.2633 5.51851 26.1161 7.44119 24.853C8.10452 24.4158 8.84475 24.0952 9.64267 23.9009C10.2099 23.7552 10.8059 23.6774 11.4308 23.6774C11.6423 23.6774 11.8538 23.6774 12.0556 23.7066C12.6132 23.7552 13.1323 23.3762 13.2573 22.8224C14.4109 17.7216 18.8812 14.1074 24.0628 14.0976C29.2444 14.0976 33.7243 17.7119 34.8875 22.8127C35.0125 23.3665 35.5316 23.7454 36.0892 23.6969C36.1661 23.6969 36.243 23.6872 36.3199 23.6774C38.281 23.6774 40.0403 24.445 41.3285 25.6789C41.9149 26.2424 42.3956 26.8934 42.7513 27.6221C43.2127 28.5548 43.4819 29.5944 43.4819 30.6923H43.5011ZM43.5204 24.7462C41.8861 22.8807 39.5116 21.6468 36.8583 21.5011C35.1855 15.8076 30.0231 11.8144 24.082 11.8144C18.1794 11.8241 13.0554 15.7785 11.3635 21.4137C10.2675 21.4234 9.21968 21.6274 8.24872 21.9772C7.77766 21.0445 7.50849 19.9951 7.5181 18.8875C7.5181 15.0206 10.7001 11.8727 14.6993 11.8727C14.9108 11.8727 15.1223 11.8727 15.3242 11.9019C15.8818 11.9504 16.4009 11.5715 16.5259 11.0177C17.6795 5.91693 22.1497 2.30265 27.3314 2.29293C32.513 2.29293 36.9928 5.90721 38.1561 11.008C38.281 11.5618 38.7906 11.9407 39.3577 11.8922C39.4347 11.8922 39.5116 11.8824 39.5885 11.8727C43.578 11.8727 46.7601 15.0206 46.7601 18.8875C46.7601 21.3359 45.4815 23.4928 43.5396 24.7462H43.5204Z" fill="black"/>
</g>
<defs>
<clipPath id="clip0_1553_33">
<rect width="47" height="40" fill="white" transform="translate(2)"/>
</clipPath>
</defs>
</svg>
