<svg width="35" height="35" viewBox="0 0 35 35" fill="none" xmlns="http://www.w3.org/2000/svg">
<g id="Icon">
<circle id="Ellipse 3" cx="17.5" cy="17.5" r="17.5" fill="#07B53B"/>
<g id="Group 152">
<path id="&#239;&#143;&#128;" d="M25.8218 21.7164C27.3741 20.0348 28.0856 18.3531 28.0856 16.4774C28.0856 11.7558 23.364 7.875 17.5428 7.875C11.7216 7.875 7 11.7558 7 16.4774C7 20.6816 10.7514 24.239 15.7964 24.8857C17.0253 25.1445 16.896 25.5972 16.6373 27.2789C16.5726 27.5376 16.3785 28.3138 17.5428 27.861C18.6423 27.4083 23.6227 24.3036 25.8218 21.7164Z" fill="white"/>
<g id="&#239;&#143;&#128;_2">
<path d="M20.4534 14.2135C20.5828 14.1489 20.7122 14.2782 20.7122 14.4076V18.9998C20.7122 19.1292 20.5828 19.1939 20.4534 19.1939H19.742C19.6773 19.1939 19.6126 19.1292 19.5479 19.1292L17.4782 16.2833V18.9998C17.4782 19.1292 17.3488 19.1939 17.2841 19.1939H16.508C16.3786 19.1939 16.3139 19.1292 16.3139 18.9998V14.4076C16.3139 14.2782 16.3786 14.2135 16.508 14.2135H17.2841C17.3488 14.2135 17.4135 14.2135 17.4135 14.2782L19.5479 17.1241V14.4076C19.5479 14.2782 19.6126 14.2135 19.742 14.2135H20.4534Z" fill="#07B53B"/>
<path d="M14.6323 14.1489H15.4084C15.4731 14.1489 15.6025 14.2782 15.6025 14.4076V18.9998C15.6025 19.1292 15.4731 19.1939 15.4084 19.1939H14.6323C14.5029 19.1939 14.4382 19.1292 14.4382 18.9998V14.4076C14.4382 14.2782 14.5029 14.1489 14.6323 14.1489Z" fill="#07B53B"/>
<path d="M11.5923 18.0296H13.5974C13.7268 18.0296 13.7914 18.159 13.7914 18.2237V18.9998C13.7914 19.0645 13.7268 19.1939 13.5974 19.1939H10.6221C10.5575 19.1939 10.5575 19.1292 10.4928 19.1292C10.4928 19.0645 10.4281 19.0645 10.4281 18.9998V14.4076C10.4281 14.2782 10.5575 14.1489 10.6221 14.1489H11.3983C11.5277 14.1489 11.5923 14.2782 11.5923 14.4076V18.0296Z" fill="#07B53B"/>
<path d="M21.6177 14.1489H24.5929C24.6576 14.1489 24.787 14.2782 24.787 14.4076V15.1191C24.787 15.2484 24.6576 15.3131 24.5929 15.3131H22.5879V16.0893H24.5929C24.6576 16.0893 24.787 16.2186 24.787 16.2833V17.0594C24.787 17.1888 24.6576 17.2535 24.5929 17.2535H22.5879V18.0296H24.5929C24.6576 18.0296 24.787 18.159 24.787 18.2237V18.9998C24.787 19.1292 24.6576 19.1939 24.5929 19.1939H21.6177C21.4883 19.1939 21.4236 19.0645 21.4236 18.9998V14.4076C21.4236 14.2782 21.4883 14.1489 21.6177 14.1489Z" fill="#07B53B"/>
</g>
</g>
</g>
</svg>
