<svg width="35" height="35" viewBox="0 0 35 35" fill="none" xmlns="http://www.w3.org/2000/svg">
<g id="Frame 1301">
<circle id="Ellipse 1" cx="17.5" cy="17.5" r="17.5" fill="#B2B5BE"/>
<g id="Group">
<path id="Vector" d="M23.6521 17.8345L21.8443 19.657C21.5348 19.9683 21.0294 19.9689 20.7193 19.657C20.4092 19.3445 20.4092 18.8351 20.7193 18.5226L22.5271 16.7001C23.0957 16.1276 23.4093 15.3699 23.4099 14.5663C23.4099 13.8128 23.1384 13.0929 22.6458 12.5398C22.1287 11.959 21.3915 11.6271 20.5707 11.6047C20.5403 11.6041 20.5104 11.6035 20.48 11.6035C19.5989 11.6035 18.7436 11.9579 18.1223 12.5834L16.4742 14.2444C16.1641 14.5569 15.6592 14.5563 15.3486 14.2444C15.1988 14.0928 15.1157 13.8912 15.1157 13.6772C15.1157 13.4631 15.1988 13.2615 15.3486 13.11L16.9966 11.449C17.9456 10.4933 19.2701 9.96791 20.6122 10.0015C21.8748 10.0363 23.0168 10.5563 23.8288 11.4667C24.5841 12.3146 25.0001 13.416 25.0001 14.5657C25.0001 15.798 24.5215 16.9578 23.6521 17.8345Z" fill="white"/>
<path id="Vector_2" d="M18.6423 22.8834L16.9837 24.5555C16.0377 25.5089 14.7354 26.0337 13.3775 25.9983C12.1179 25.9635 10.9782 25.4429 10.1685 24.532C9.41499 23.6847 9.00019 22.5856 9.00019 21.4353C8.98907 20.2042 9.46472 19.0409 10.3399 18.1594L12.1477 16.3375C12.2981 16.186 12.4976 16.1028 12.71 16.1028C12.9223 16.1028 13.1224 16.1866 13.2728 16.3375C13.4225 16.489 13.5056 16.6907 13.5056 16.9047C13.5056 17.1187 13.4225 17.3204 13.2728 17.4719L11.465 19.2938C10.8946 19.8687 10.5845 20.6275 10.5915 21.4276C10.5915 22.1865 10.8624 22.9093 11.3538 23.4618C11.8693 24.0414 12.6041 24.3728 13.4214 24.3952C14.3194 24.4099 15.2198 24.065 15.8593 23.4205L17.5179 21.749C17.8268 21.4371 18.3322 21.4365 18.6429 21.749C18.9524 22.0621 18.9524 22.5709 18.6423 22.8834Z" fill="white"/>
<path id="Vector_3" d="M13.4442 20.4471L19.4268 14.4177C19.5819 14.2615 19.7855 14.1837 19.9891 14.1837C20.1926 14.1837 20.3962 14.2621 20.5513 14.4177C20.8614 14.7302 20.8614 15.2397 20.5513 15.5521L14.5692 21.5815C14.2685 21.8846 13.7449 21.8846 13.4442 21.5815C13.2944 21.43 13.2113 21.2284 13.2113 21.0143C13.2113 20.8003 13.2944 20.5986 13.4442 20.4471Z" fill="white"/>
</g>
</g>
</svg>
