<svg width="124" height="35" viewBox="0 0 124 35" fill="none" xmlns="http://www.w3.org/2000/svg">
<path d="M52.3993 24.7937C52.5049 24.7937 52.5924 24.7754 52.6616 24.7351C52.7308 24.6947 52.8036 24.5774 52.8364 24.3209C52.8692 24.0643 52.8874 23.5144 52.8874 22.7887C53.2552 23.1442 54.0128 23.5767 54.5227 23.771C54.4717 24.5188 54.3989 25.3032 54.275 25.6404C54.133 26.0143 53.889 26.2306 53.5721 26.4065C53.3099 26.5458 52.8692 26.5825 52.5705 26.5825H51.5143C51.0918 26.5825 50.5637 26.4432 50.2468 26.1096C49.93 25.7761 49.7879 25.3619 49.7879 24.1632V21.5094H48.7681C48.5387 24.1632 47.7665 25.7761 44.5833 26.7401C44.4267 26.2489 44.0042 25.5195 43.6181 25.087C41.7898 25.5195 39.9614 25.9117 38.4827 26.2453L38.0785 24.1229C38.8178 24.0056 39.7138 23.8663 40.6789 23.6721V18.5403H38.3043V16.5756H40.6789V15.1387H39.131V14.4715C38.9016 14.7281 38.6576 14.9627 38.4281 15.179C38.3043 14.6475 37.9182 13.3316 37.6378 12.7597C38.9744 11.6967 40.3293 9.98859 41.1196 8.1998L42.6675 8.98789C42.5619 9.22249 42.4563 9.46075 42.3507 9.69534C43.4943 10.4211 44.5833 11.2862 45.2352 11.9973L44.6561 13.0786H46.8014C46.6957 12.6058 46.5537 12.0743 46.3789 11.6234L47.803 11.3082H45.0058V9.53772H48.4003C48.2946 9.22249 48.1708 8.90725 48.0324 8.65433L49.879 8.16315C50.0902 8.55536 50.3379 9.06854 50.5127 9.53772H53.9399V11.3082H51.0736L52.6725 11.6234C52.443 12.1549 52.2136 12.6461 52.0205 13.0786H54.235V14.8857H44.5469V13.2729L44.23 13.8447L44.179 13.7861V15.1423H42.4927V16.5792H44.7071V18.544H42.4927V23.3202L44.8674 22.829L44.9912 24.4418C46.2915 23.8333 46.6448 22.9096 46.8014 21.513H45.4283V15.5749H53.5502V21.513H51.7219V24.2255C51.7219 24.4821 51.7401 24.6398 51.7911 24.6984C51.8421 24.757 51.9149 24.7974 52.0205 24.7974H52.3884L52.3993 24.7937ZM39.7939 19.2881C40.0926 20.3694 40.3402 21.766 40.4276 22.6714L39.0218 23.1039C38.9854 22.1618 38.7413 20.7433 38.4755 19.6619L39.7939 19.2881ZM43.6254 13.1959C43.0099 12.5875 42.2196 11.9753 41.4292 11.4072C41.0614 12.0376 40.6389 12.6278 40.2164 13.1959H43.6291H43.6254ZM42.693 22.3158C42.9407 21.4507 43.2029 20.0542 43.3086 19.1304L44.82 19.5447C44.5032 20.6443 44.2227 21.8833 43.9751 22.7117L42.693 22.3195V22.3158ZM47.1947 17.8732H51.7146V17.0081H47.1947V17.8732ZM47.1947 20.0762H51.7146V19.2111H47.1947V20.0762ZM48.0907 11.3082C48.3201 11.8397 48.5642 12.5471 48.6516 13.0786H50.2177C50.4289 12.5288 50.6584 11.8397 50.764 11.3082H48.0907Z" fill="white"/>
<path d="M60.5941 13.3536H63.4058V15.3183H61.6831L62.7393 15.6116C62.4407 16.3007 62.1238 16.9678 61.8434 17.5983H63.0562V19.563H60.5941V21.1355H63.4058V23.1003H60.5941V26.6009H58.6601V23.1003H55.619V21.1355H58.6601V19.563H56.0415V17.5983H57.2907C57.1669 17.0081 56.9046 16.2604 56.6752 15.6519L57.6586 15.3183H55.6372V13.3536H58.6601V11.9973H56.1107V10.0693H58.6601V8.37946H60.5941V10.0693H63.0016V11.9973H60.5941V13.3536ZM60.0988 17.5983C60.4157 16.8725 60.7325 16.0258 60.9438 15.3183H58.2522C58.5509 15.9855 58.8495 16.7735 58.937 17.305L58.1466 17.5983H60.0988ZM71.5642 16.3007C71.2292 18.621 70.6136 20.7653 69.7359 22.5908C70.4388 23.4742 71.2474 24.1816 72.1433 24.6948C71.7026 25.1273 71.0871 25.9741 70.7702 26.5422C69.9799 26.0107 69.2588 25.3216 68.6068 24.4968C68.0277 25.3619 67.3576 26.0877 66.6036 26.7182C66.4106 26.3846 66.0937 26.0107 65.7769 25.6551V26.6375H63.8793V9.14555H71.1417V12.8404C71.1417 13.8448 70.9487 14.4129 70.264 14.7282C69.5975 15.0434 68.6469 15.0617 67.3612 15.0617C67.2738 14.4313 67.0079 13.6248 66.7639 13.0567C67.6271 13.097 68.5922 13.097 68.8545 13.097C69.1167 13.0787 69.2078 13.02 69.2078 12.8038V11.1909H65.7805V15.8901H69.9653L70.3004 15.7912L71.5679 16.3007H71.5642ZM65.7805 24.6581C66.4143 24.0863 66.9424 23.4192 67.4158 22.6714C66.7493 21.4728 66.2212 20.0945 65.7805 18.621V24.6581ZM67.2374 17.7376C67.5542 18.7603 67.9585 19.761 68.4502 20.6663C68.8363 19.761 69.1349 18.7603 69.3644 17.7376H67.2374Z" fill="white"/>
<path d="M77.9635 19.3468V26.3663H77.1367V19.3468H73.48V18.4817H77.1367V16.1028H73.4108V15.256H78.3532C78.721 14.2517 79.1617 12.7781 79.4094 11.7774L80.2179 12.012C79.9011 13.053 79.515 14.314 79.1472 15.256H81.591V16.1028H77.9707V18.4817H81.4708V19.3468H77.9707H77.9635ZM75.9785 20.824C75.556 22.2609 74.8531 23.7527 74.1319 24.7351C74.0081 24.6178 73.6912 24.3429 73.4982 24.2439C74.2376 23.2799 74.8531 21.942 75.2391 20.626L75.9785 20.824ZM81.3215 11.5612H73.673V10.7144H77.4171C77.1695 10.1059 76.8016 9.35817 76.503 8.78634L77.3115 8.52975C77.6976 9.21888 78.1383 10.0839 78.3677 10.7108H81.3215V11.5575V11.5612ZM75.7126 15.0434C75.6252 14.237 75.3266 12.9394 74.9551 11.9974L75.658 11.8214C76.0441 12.7635 76.3791 14.0244 76.4665 14.8088L75.709 15.0434H75.7126ZM79.6534 20.5674C80.2507 21.6084 80.8845 22.9463 81.1649 23.8297L80.513 24.2219C80.2325 23.3165 79.5988 21.92 79.0343 20.879L79.6498 20.5637L79.6534 20.5674ZM89.2359 16.1834H87.1271V26.3076H86.3003V16.1834H83.4157V17.1474C83.4157 19.9186 83.1863 23.6941 81.5 26.2893C81.3761 26.0914 81.0593 25.8164 80.8662 25.6991C82.4651 23.2432 82.6254 19.8013 82.6254 17.1474V10.5018C84.614 10.1463 86.9522 9.59643 88.1979 9.0466L88.9372 9.75405C87.4949 10.3259 85.3497 10.8354 83.4157 11.1286V15.2963H89.2359V16.1797V16.1834Z" fill="white"/>
<path d="M92.5939 15.3769V26.4469H91.7672V9.4571H97.9369V15.3769H92.5903H92.5939ZM92.5939 10.2269V12.0156H97.1284V10.2269H92.5939ZM97.132 14.6108V12.7817H92.5976V14.6108H97.132ZM101.841 23.6354V25.7981H101.051V23.6354H93.9306V22.8473H95.8646V17.4406H94.4041V16.6745H103.284V17.4406H101.841V22.8473H103.633V23.6354H101.841ZM96.6367 17.4406V18.7786H101.051V17.4406H96.6367ZM96.6367 20.8019H101.051V19.486H96.6367V20.8019ZM101.051 22.8473V21.5314H96.6367V22.8473H101.051ZM106.063 25.0686C106.063 25.7578 105.921 26.051 105.502 26.2269C105.097 26.3846 104.34 26.4029 103.163 26.4029C103.127 26.1463 103.007 25.7541 102.883 25.4792C103.815 25.4975 104.66 25.4975 104.904 25.4792C105.152 25.4792 105.239 25.3802 105.239 25.087V15.3733H99.7362V9.45343H106.066V25.065L106.063 25.0686ZM100.541 10.2269V12.0156H105.236V10.2269H100.541ZM105.236 14.6108V12.7817H100.541V14.6108H105.236Z" fill="white"/>
<path d="M110.105 21.1575C109.858 22.8473 109.526 24.6984 109.155 25.9154C108.998 25.8384 108.663 25.6808 108.452 25.6001C108.874 24.3612 109.173 22.6127 109.366 21.0182L110.105 21.1575ZM113.605 15.9488C114.097 17.1694 114.625 18.8006 114.836 19.7646L114.115 20.0579C114.064 19.7426 113.973 19.3907 113.868 18.9948C109.646 19.7206 109.155 19.8599 108.856 20.0359C108.82 19.8196 108.699 19.3467 108.594 19.1121C108.911 19.0535 109.315 18.522 109.807 17.7962C110.105 17.404 110.757 16.3996 111.478 15.1607C109.333 15.4539 108.965 15.5529 108.772 15.6702C108.721 15.4539 108.597 15.0214 108.492 14.7648C108.772 14.7062 109.053 14.2553 109.424 13.6651C109.81 13.0567 111.078 10.7547 111.868 8.59204L112.626 8.98425C111.781 10.971 110.761 13.0347 109.727 14.5669L111.959 14.3323C112.433 13.4672 112.892 12.5252 113.296 11.5978L114.035 12.0303C112.822 14.4862 111.416 16.9458 109.974 18.8336L113.649 18.2434C113.438 17.536 113.19 16.8065 112.946 16.1577L113.613 15.9415L113.605 15.9488ZM111.864 20.9596C112.076 22.2975 112.305 24.0276 112.356 25.1676L111.653 25.3436C111.602 24.1853 111.406 22.4331 111.18 21.1172L111.864 20.9596ZM113.747 20.527C114.152 21.7477 114.611 23.3385 114.818 24.3612L114.152 24.6178C113.959 23.5548 113.5 21.9639 113.114 20.7433L113.747 20.527ZM123.996 25.1493C123.996 25.7981 123.854 26.073 123.487 26.249C123.119 26.4066 122.416 26.4249 121.378 26.4066C121.327 26.172 121.221 25.7761 121.115 25.5012C121.942 25.5415 122.682 25.5195 122.907 25.5195C123.137 25.5012 123.206 25.4205 123.206 25.1639V10.4615H116.017V26.4469H115.226V9.57807H124V25.1493H123.996ZM116.541 14.6109H120.285C120.602 13.6285 121.024 12.1549 121.217 11.1689L121.939 11.4255C121.64 12.4482 121.272 13.6871 120.937 14.6109H122.802V15.4356H116.541V14.6109ZM121.447 21.667C121.764 21.667 122.255 21.667 122.536 21.59C122.554 21.8466 122.587 22.1802 122.623 22.3781C122.394 22.4551 121.939 22.4551 121.48 22.4551H118.701C117.75 22.4551 117.506 22.0629 117.506 20.9596V18.5806H116.785V17.7559H119.546C119.389 17.1841 118.999 16.3593 118.683 15.7508L119.298 15.4576C119.633 16.0661 120.037 16.9311 120.212 17.4443L119.666 17.7596H122.478V18.5843H118.256V20.9816C118.256 21.5131 118.326 21.6707 118.715 21.6707H121.44L121.447 21.667ZM117.932 11.1286C118.424 12.012 118.865 13.2509 119.021 14.0574L118.388 14.3139C118.231 13.5075 117.808 12.2686 117.331 11.3449L117.929 11.1286H117.932Z" fill="white"/>
<mask id="mask0_1311_1187" style="mask-type:luminance" maskUnits="userSpaceOnUse" x="0" y="0" width="35" height="35">
<path d="M17.2491 34.72C26.7756 34.72 34.4983 26.9477 34.4983 17.36C34.4983 7.77234 26.7756 0 17.2491 0C7.7227 0 0 7.77234 0 17.36C0 26.9477 7.7227 34.72 17.2491 34.72Z" fill="white"/>
</mask>
<g mask="url(#mask0_1311_1187)">
<path d="M39.2768 17.36C39.2768 30.0978 29.0169 40.4236 16.3605 40.4236C3.70407 40.4236 -6.55582 30.0978 -6.55582 17.36C-6.55582 4.62228 3.70407 -5.70355 16.3605 -5.70355C29.0169 -5.70355 39.2768 4.62228 39.2768 17.36Z" fill="url(#paint0_linear_1311_1187)"/>
<g opacity="0.8">
<path d="M5.29562 7.58034H5.0953V-0.575487L-2.48762 -8.20714H-6.19167L-7.91075 -9.93728L-7.77235 -10.0766L-6.11154 -8.40508H-2.40385L5.29562 -0.656129V7.58034Z" fill="white"/>
<path d="M4.97151 7.56933C4.97151 7.69396 5.06985 7.79293 5.19368 7.79293C5.31751 7.79293 5.41585 7.69396 5.41585 7.56933C5.41585 7.4447 5.31751 7.34573 5.19368 7.34573C5.06985 7.34573 4.97151 7.4447 4.97151 7.56933Z" fill="white"/>
<path d="M7.08396 9.33615H6.69061V-0.993344L-1.87933 -9.6147L-1.60252 -9.89694L7.08396 -1.15463V9.33615Z" fill="white"/>
<path d="M6.51575 9.31779C6.51575 9.52306 6.68329 9.69168 6.88725 9.69168C7.09121 9.69168 7.25875 9.52306 7.25875 9.31779C7.25875 9.11252 7.09121 8.94391 6.88725 8.94391C6.68329 8.94391 6.51575 9.11252 6.51575 9.31779Z" fill="white"/>
<path d="M9.3093 7.58034H9.11263V-0.263919L3.95901 -5.45066V-10.0069H4.15569V-5.5313L9.3093 -0.344561V7.58034Z" fill="white"/>
<path d="M8.98874 7.56933C8.98874 7.69396 9.08707 7.79293 9.21091 7.79293C9.33474 7.79293 9.43308 7.69396 9.43308 7.56933C9.43308 7.4447 9.33474 7.34573 9.21091 7.34573C9.08707 7.34573 8.98874 7.4447 8.98874 7.56933Z" fill="white"/>
<path d="M4.51262 11.7041H4.31595V-0.150285L-2.03229 -6.53932H-9.15266L-12.5289 -9.93728L-12.3905 -10.0766L-9.06889 -6.73726H-1.94852L4.51262 -0.230927V11.7041Z" fill="white"/>
<path d="M4.41429 11.9167C4.53699 11.9167 4.63646 11.8166 4.63646 11.6931C4.63646 11.5696 4.53699 11.4695 4.41429 11.4695C4.29158 11.4695 4.19212 11.5696 4.19212 11.6931C4.19212 11.8166 4.29158 11.9167 4.41429 11.9167Z" fill="white"/>
<path d="M3.37625 10.5898H3.17957V0.700134L-2.94285 -5.45798H-9.97217V-5.65591H-2.85908L3.37625 0.619493V10.5898Z" fill="white"/>
<path d="M3.05569 10.5788C3.05569 10.7034 3.15403 10.8024 3.27786 10.8024C3.4017 10.8024 3.50003 10.7034 3.50003 10.5788C3.50003 10.4541 3.4017 10.3552 3.27786 10.3552C3.15403 10.3552 3.05569 10.4541 3.05569 10.5788Z" fill="white"/>
<path d="M3.90438 15.058L3.76234 14.9188L10.4274 8.21081V-3.86348L16.6045 -10.0766L16.7429 -9.93728L10.6278 -3.78284V8.29145L3.90438 15.058Z" fill="white"/>
<path d="M3.68223 14.8235C3.59482 14.9114 3.59482 15.0544 3.68223 15.1387C3.76965 15.2267 3.91169 15.2267 3.99546 15.1387C4.08287 15.0507 4.08287 14.9078 3.99546 14.8235C3.90805 14.7355 3.766 14.7355 3.68223 14.8235Z" fill="white"/>
<path d="M4.45428 16.1394H1.08166V15.9414H4.37415L11.3379 8.92926V-3.14503L18.2288 -10.0766L18.3672 -9.93728L11.5382 -3.06072V9.01357L4.45428 16.1394Z" fill="white"/>
<path d="M1.09263 15.8168C0.968798 15.8168 0.870461 15.9158 0.870461 16.0404C0.870461 16.165 0.968798 16.264 1.09263 16.264C1.21646 16.264 1.3148 16.165 1.3148 16.0404C1.3148 15.9158 1.21646 15.8168 1.09263 15.8168Z" fill="white"/>
<path d="M13.5159 3.06811L13.2391 2.78953L15.4353 0.579209V-2.95437L20.3595 -7.91385L20.6399 -7.6316L15.8287 -2.79309V0.744159L13.5159 3.06811Z" fill="white"/>
<path d="M13.3922 3.29168C13.5973 3.29168 13.7637 3.12429 13.7637 2.9178C13.7637 2.71131 13.5973 2.54391 13.3922 2.54391C13.187 2.54391 13.0207 2.71131 13.0207 2.9178C13.0207 3.12429 13.187 3.29168 13.3922 3.29168Z" fill="white"/>
<path d="M12.813 7.73064L12.671 7.59135L19.7914 0.421551V-3.86347L25.8155 -9.92627L25.9575 -9.78698L19.9917 -3.78282V0.505858L12.813 7.73064Z" fill="white"/>
<path d="M12.5908 7.49237C12.5034 7.58034 12.5034 7.7233 12.5908 7.80761C12.6783 7.89558 12.8203 7.89558 12.9041 7.80761C12.9915 7.71963 12.9915 7.57668 12.9041 7.49237C12.8167 7.4044 12.6746 7.4044 12.5908 7.49237Z" fill="white"/>
<path d="M7.03294 16.8651L6.8909 16.7259L22.96 0.553489V-3.03141L30.5648 -10.6814L30.7032 -10.5421L23.1603 -2.9471V0.63413L7.03294 16.8651Z" fill="white"/>
<path d="M6.81079 16.6306C6.72338 16.7185 6.72338 16.8615 6.81079 16.9458C6.8982 17.0338 7.04024 17.0338 7.12401 16.9458C7.21142 16.8578 7.21142 16.7149 7.12401 16.6306C7.0366 16.5426 6.89456 16.5426 6.81079 16.6306Z" fill="white"/>
<path d="M-7.05481 24.1853L-7.33525 23.903L-1.40586 17.9355H7.226L34.8807 -9.89694L35.1612 -9.6147L7.38989 18.3314H-1.24196L-7.05481 24.1853Z" fill="white"/>
<path d="M-7.1313 25.9337L-7.27334 25.7944L-0.863185 19.3467H7.65941L28.0772 -1.20228H40.9485L49.6168 -9.92627L49.7552 -9.78698L41.0286 -1.00434H28.1573L7.74317 19.5447H-0.783058L-7.1313 25.9337Z" fill="white"/>
<path d="M14.3646 15.2963L14.2262 15.1533L28.7255 0.560791H39.6118V0.75873H28.8093L14.3646 15.2963Z" fill="white"/>
<path d="M14.146 15.058C14.0586 15.146 14.0586 15.2889 14.146 15.3733C14.2335 15.4576 14.3755 15.4612 14.4593 15.3733C14.5467 15.2853 14.5467 15.1423 14.4593 15.058C14.3719 14.97 14.2298 14.97 14.146 15.058Z" fill="white"/>
<path d="M14.1679 21.3958L13.749 20.9779L28.0298 6.60534H35.7657L40.1982 2.14804L40.6134 2.56958L36.0134 7.20282H28.2739L14.1679 21.3958Z" fill="white"/>
<path d="M11.0139 21.3334C10.7953 21.5534 10.7953 21.9053 11.0139 22.1252C11.2324 22.3451 11.582 22.3451 11.8006 22.1252C12.0191 21.9053 12.0191 21.5534 11.8006 21.3334C11.582 21.1135 11.2324 21.1135 11.0139 21.3334Z" fill="white"/>
<path d="M13.5087 21.6413L13.3666 21.5021L21.4012 13.4159H23.9361L27.3816 9.94827H31.3697V10.1462H27.4653L24.0162 13.6175H21.4813L13.5087 21.6413Z" fill="white"/>
<path d="M31.2786 10.2709C31.4013 10.2709 31.5008 10.1708 31.5008 10.0473C31.5008 9.92378 31.4013 9.82367 31.2786 9.82367C31.1559 9.82367 31.0564 9.92378 31.0564 10.0473C31.0564 10.1708 31.1559 10.2709 31.2786 10.2709Z" fill="white"/>
<path d="M12.7074 22.5431C12.8301 22.5431 12.9295 22.443 12.9295 22.3195C12.9295 22.196 12.8301 22.0959 12.7074 22.0959C12.5847 22.0959 12.4852 22.196 12.4852 22.3195C12.4852 22.443 12.5847 22.5431 12.7074 22.5431Z" fill="white"/>
<path d="M14.1351 22.7007C14.0113 22.7007 13.913 22.6017 13.913 22.4771C13.913 22.3524 14.0113 22.2535 14.1351 22.2535C14.259 22.2535 14.3573 22.3524 14.3573 22.4771C14.3573 22.6017 14.259 22.7007 14.1351 22.7007Z" fill="white"/>
<path d="M21.6598 19.343H7.64854V18.9472H21.4959L28.4051 11.99L28.6855 12.2722L21.6598 19.343Z" fill="white"/>
<path d="M28.2702 11.88C28.4159 11.7334 28.649 11.7334 28.7947 11.88C28.9404 12.0266 28.9404 12.2612 28.7947 12.4079C28.649 12.5545 28.4159 12.5545 28.2702 12.4079C28.1246 12.2612 28.1246 12.0266 28.2702 11.88Z" fill="white"/>
<path d="M7.66669 19.519C7.87186 19.519 8.03818 19.3516 8.03818 19.1451C8.03818 18.9386 7.87186 18.7712 7.66669 18.7712C7.46151 18.7712 7.29519 18.9386 7.29519 19.1451C7.29519 19.3516 7.46151 19.519 7.66669 19.519Z" fill="white"/>
<path d="M-7.94712 26.161L-8.08553 26.018L-3.57657 21.4801H2.91007L5.77279 24.3612H18.7424L31.5809 11.4402H53.2079L58.4562 6.16177H65.4564V6.35971H58.5364L53.288 11.6418H31.6611L18.8262 24.5591H5.68902L2.82994 21.678H-3.4928L-7.94712 26.161Z" fill="white"/>
<path d="M25.4621 21.8796L25.1853 21.5974L32.0435 14.6952H52.993L58.3615 9.29584H65.5729V9.69172H58.5218L53.1569 15.0911H32.2074L25.4621 21.8796Z" fill="white"/>
<path d="M20.4032 27.8288C20.2575 27.9754 20.0244 27.9754 19.8787 27.8288C19.733 27.6822 19.733 27.4476 19.8787 27.3009C20.0244 27.1543 20.2575 27.1543 20.4032 27.3009C20.5489 27.4476 20.5489 27.6822 20.4032 27.8288Z" fill="white"/>
<path d="M25.1489 24.2879L25.0105 24.1486L32.6116 16.4986H54.3989L59.2283 11.6418H64.666V11.8397H59.3085L54.479 16.6966H32.6918L25.1489 24.2879Z" fill="white"/>
<path d="M27.0356 25.7871L26.8972 25.6478L35.0883 17.404H57.0139L61.6904 12.6974H66.2722V12.8954H61.7706L57.0941 17.6019H35.1721L27.0356 25.7871Z" fill="white"/>
<path d="M27.3233 26.9601L27.1813 26.8171L35.4635 18.4817H58.052L62.6665 13.8411H65.9445V14.039H62.7467L58.1357 18.6796H35.5472L27.3233 26.9601Z" fill="white"/>
<path d="M27.4179 27.037C27.3305 27.125 27.1885 27.125 27.1047 27.037C27.0209 26.9491 27.0173 26.8061 27.1047 26.7218C27.1921 26.6375 27.3341 26.6338 27.4179 26.7218C27.5017 26.8098 27.5053 26.9527 27.4179 27.037Z" fill="white"/>
<path d="M42.9845 26.1133H30.9946V25.9154H42.9007L45.3227 23.4814H66.9205V23.6794H45.4028L42.9845 26.1133Z" fill="white"/>
<path d="M31.0055 26.2379C31.1282 26.2379 31.2276 26.1378 31.2276 26.0143C31.2276 25.8908 31.1282 25.7907 31.0055 25.7907C30.8828 25.7907 30.7833 25.8908 30.7833 26.0143C30.7833 26.1378 30.8828 26.2379 31.0055 26.2379Z" fill="white"/>
<path d="M4.23577 25.4792L6.7452 28.0084H17.6898L19.6274 29.9585H37.9765L38.0056 29.9878L40.2565 32.2531L40.1181 32.3924L37.8964 30.1564H19.5473L17.606 28.2063H6.66507L4.152 25.6771" fill="white"/>
<path d="M4.32323 25.7394C4.18119 25.8824 3.94809 25.8824 3.80605 25.7394C3.66401 25.5965 3.66401 25.3619 3.80605 25.2189C3.94809 25.076 4.18119 25.076 4.32323 25.2189C4.46527 25.3619 4.46527 25.5965 4.32323 25.7394Z" fill="white"/>
<path d="M65.6276 29.6506H40.4896L38.7049 28.6609H23.6702V28.067H38.8579L40.6425 29.0567H65.6276V29.6506Z" fill="white"/>
<path d="M23.6957 28.9248C23.3897 28.9248 23.1384 28.6755 23.1384 28.364C23.1384 28.0524 23.3861 27.8031 23.6957 27.8031C24.0053 27.8031 24.2529 28.0524 24.2529 28.364C24.2529 28.6755 24.0053 28.9248 23.6957 28.9248Z" fill="white"/>
<path d="M0.142017 10.2598L-6.84724 3.22932H-19.256L-23.0584 7.05614H-33.1871L-45.2827 -5.11712L-45.1406 -5.25641L-33.1034 6.8582H-23.1385L-19.3361 3.03138H-6.76347L0.280418 10.1205L0.142017 10.2598Z" fill="white"/>
<path d="M0.360567 10.0253C0.447978 10.1132 0.447978 10.2562 0.360567 10.3405C0.273155 10.4285 0.131112 10.4285 0.0473432 10.3405C-0.040068 10.2525 -0.040068 10.1096 0.0473432 10.0253C0.134754 9.9373 0.276798 9.9373 0.360567 10.0253Z" fill="white"/>
<path d="M1.32937 4.53797C1.58282 4.53797 1.78828 4.33119 1.78828 4.07612C1.78828 3.82104 1.58282 3.61426 1.32937 3.61426C1.07592 3.61426 0.870464 3.82104 0.870464 4.07612C0.870464 4.33119 1.07592 4.53797 1.32937 4.53797Z" fill="white"/>
<path d="M1.32937 7.02687C1.58282 7.02687 1.78828 6.82008 1.78828 6.56501C1.78828 6.30993 1.58282 6.10315 1.32937 6.10315C1.07592 6.10315 0.870464 6.30993 0.870464 6.56501C0.870464 6.82008 1.07592 7.02687 1.32937 7.02687Z" fill="white"/>
<path d="M1.32937 9.5121C1.58282 9.5121 1.78828 9.30531 1.78828 9.05024C1.78828 8.79516 1.58282 8.58838 1.32937 8.58838C1.07592 8.58838 0.870464 8.79516 0.870464 9.05024C0.870464 9.30531 1.07592 9.5121 1.32937 9.5121Z" fill="white"/>
<path d="M31.723 2.71254C31.8577 2.71254 31.967 2.59274 31.967 2.44495C31.967 2.29717 31.8577 2.17737 31.723 2.17737C31.5882 2.17737 31.4789 2.29717 31.4789 2.44495C31.4789 2.59274 31.5882 2.71254 31.723 2.71254Z" fill="white"/>
<path d="M31.7229 4.14943C31.8577 4.14943 31.967 4.02963 31.967 3.88184C31.967 3.73406 31.8577 3.61426 31.7229 3.61426C31.5882 3.61426 31.4789 3.73406 31.4789 3.88184C31.4789 4.02963 31.5882 4.14943 31.7229 4.14943Z" fill="white"/>
<path d="M31.7229 5.58629C31.8577 5.58629 31.967 5.46648 31.967 5.3187C31.967 5.17092 31.8577 5.05112 31.7229 5.05112C31.5882 5.05112 31.4789 5.17092 31.4789 5.3187C31.4789 5.46648 31.5882 5.58629 31.7229 5.58629Z" fill="white"/>
<path d="M32.8848 2.71254C33.0196 2.71254 33.1288 2.59274 33.1288 2.44495C33.1288 2.29717 33.0196 2.17737 32.8848 2.17737C32.75 2.17737 32.6408 2.29717 32.6408 2.44495C32.6408 2.59274 32.75 2.71254 32.8848 2.71254Z" fill="white"/>
<path d="M32.8848 4.14943C33.0196 4.14943 33.1288 4.02963 33.1288 3.88184C33.1288 3.73406 33.0196 3.61426 32.8848 3.61426C32.75 3.61426 32.6408 3.73406 32.6408 3.88184C32.6408 4.02963 32.75 4.14943 32.8848 4.14943Z" fill="white"/>
<path d="M32.8848 5.58629C33.0196 5.58629 33.1288 5.46648 33.1288 5.3187C33.1288 5.17092 33.0196 5.05112 32.8848 5.05112C32.75 5.05112 32.6408 5.17092 32.6408 5.3187C32.6408 5.46648 32.75 5.58629 32.8848 5.58629Z" fill="white"/>
<path d="M34.0467 2.71254C34.1815 2.71254 34.2907 2.59274 34.2907 2.44495C34.2907 2.29717 34.1815 2.17737 34.0467 2.17737C33.9119 2.17737 33.8027 2.29717 33.8027 2.44495C33.8027 2.59274 33.9119 2.71254 34.0467 2.71254Z" fill="white"/>
<path d="M34.0467 4.14943C34.1815 4.14943 34.2907 4.02963 34.2907 3.88184C34.2907 3.73406 34.1815 3.61426 34.0467 3.61426C33.9119 3.61426 33.8027 3.73406 33.8027 3.88184C33.8027 4.02963 33.9119 4.14943 34.0467 4.14943Z" fill="white"/>
<path d="M34.0467 5.58629C34.1815 5.58629 34.2907 5.46648 34.2907 5.3187C34.2907 5.17092 34.1815 5.05112 34.0467 5.05112C33.9119 5.05112 33.8027 5.17092 33.8027 5.3187C33.8027 5.46648 33.9119 5.58629 34.0467 5.58629Z" fill="white"/>
<path d="M12.7038 31.6043C12.9572 31.6043 13.1627 31.3975 13.1627 31.1425C13.1627 30.8874 12.9572 30.6806 12.7038 30.6806C12.4503 30.6806 12.2449 30.8874 12.2449 31.1425C12.2449 31.3975 12.4503 31.6043 12.7038 31.6043Z" fill="white"/>
<path d="M10.2344 31.6043C10.4879 31.6043 10.6933 31.3975 10.6933 31.1425C10.6933 30.8874 10.4879 30.6806 10.2344 30.6806C9.98096 30.6806 9.7755 30.8874 9.7755 31.1425C9.7755 31.3975 9.98096 31.6043 10.2344 31.6043Z" fill="white"/>
<path d="M15.1731 31.6043C15.4266 31.6043 15.632 31.3975 15.632 31.1425C15.632 30.8874 15.4266 30.6806 15.1731 30.6806C14.9197 30.6806 14.7142 30.8874 14.7142 31.1425C14.7142 31.3975 14.9197 31.6043 15.1731 31.6043Z" fill="white"/>
<path d="M8.33683 26.3552C8.47361 26.3552 8.58449 26.2436 8.58449 26.106C8.58449 25.9683 8.47361 25.8567 8.33683 25.8567C8.20005 25.8567 8.08916 25.9683 8.08916 26.106C8.08916 26.2436 8.20005 26.3552 8.33683 26.3552Z" fill="white"/>
<path d="M9.6735 26.3552C9.81029 26.3552 9.92117 26.2436 9.92117 26.106C9.92117 25.9683 9.81029 25.8567 9.6735 25.8567C9.53672 25.8567 9.42584 25.9683 9.42584 26.106C9.42584 26.2436 9.53672 26.3552 9.6735 26.3552Z" fill="white"/>
<path d="M11.0065 26.3552C11.1433 26.3552 11.2542 26.2436 11.2542 26.106C11.2542 25.9683 11.1433 25.8567 11.0065 25.8567C10.8698 25.8567 10.7589 25.9683 10.7589 26.106C10.7589 26.2436 10.8698 26.3552 11.0065 26.3552Z" fill="white"/>
<path d="M12.3432 26.3552C12.48 26.3552 12.5908 26.2436 12.5908 26.106C12.5908 25.9683 12.48 25.8567 12.3432 25.8567C12.2064 25.8567 12.0955 25.9683 12.0955 26.106C12.0955 26.2436 12.2064 26.3552 12.3432 26.3552Z" fill="white"/>
<path d="M8.33683 27.3706C8.47361 27.3706 8.58449 27.259 8.58449 27.1213C8.58449 26.9837 8.47361 26.8721 8.33683 26.8721C8.20005 26.8721 8.08916 26.9837 8.08916 27.1213C8.08916 27.259 8.20005 27.3706 8.33683 27.3706Z" fill="white"/>
<path d="M9.6735 27.3706C9.81029 27.3706 9.92117 27.259 9.92117 27.1213C9.92117 26.9837 9.81029 26.8721 9.6735 26.8721C9.53672 26.8721 9.42584 26.9837 9.42584 27.1213C9.42584 27.259 9.53672 27.3706 9.6735 27.3706Z" fill="white"/>
<path d="M11.0065 27.3706C11.1433 27.3706 11.2542 27.259 11.2542 27.1213C11.2542 26.9837 11.1433 26.8721 11.0065 26.8721C10.8698 26.8721 10.7589 26.9837 10.7589 27.1213C10.7589 27.259 10.8698 27.3706 11.0065 27.3706Z" fill="white"/>
<path d="M12.3432 27.3706C12.48 27.3706 12.5908 27.259 12.5908 27.1213C12.5908 26.9837 12.48 26.8721 12.3432 26.8721C12.2064 26.8721 12.0955 26.9837 12.0955 27.1213C12.0955 27.259 12.2064 27.3706 12.3432 27.3706Z" fill="white"/>
<path d="M33.5987 32.4364H18.7315L15.683 29.3683H5.88568L4.82582 30.435H4.78576C1.83563 30.5083 -3.13952 30.6036 -3.33256 30.4057L-4.6073 29.1227H-7.23692V28.9248H-4.52718L-3.20508 30.2554C-2.85179 30.3764 1.7118 30.3104 4.74205 30.2371L5.80556 29.1667H15.7631L18.8116 32.2348H33.5987V32.4327V32.4364Z" fill="white"/>
<path d="M33.5877 32.561C33.7116 32.561 33.8099 32.4621 33.8099 32.3374C33.8099 32.2128 33.7116 32.1138 33.5877 32.1138C33.4639 32.1138 33.3656 32.2128 33.3656 32.3374C33.3656 32.4621 33.4639 32.561 33.5877 32.561Z" fill="white"/>
<path d="M24.1255 38.3379H12.2631L8.34048 34.3901H-3.22329L-7.38989 30.1931L-7.25149 30.0538L-3.13952 34.1922H8.42425L12.3468 38.14H24.0454L26.3872 35.783H41.3892L46.7104 30.4277H66.305V30.6256H46.7905L41.473 35.981H26.4674L24.1255 38.3379Z" fill="white"/>
<path d="M22.9127 37.1502H13.0498L9.04346 33.1181H-2.49846V32.9165H9.12723L13.1336 36.9523H22.8289L25.6224 34.1408H39.6119V34.3388H25.7026L22.9127 37.1502Z" fill="white"/>
</g>
<path d="M13.4067 23.7637C19.5116 23.7637 24.4606 18.7829 24.4606 12.6388C24.4606 6.49468 19.5116 1.51389 13.4067 1.51389C7.30185 1.51389 2.35286 6.49468 2.35286 12.6388C2.35286 18.7829 7.30185 23.7637 13.4067 23.7637Z" fill="url(#paint1_linear_1311_1187)"/>
<path d="M13.4067 23.2176C19.2119 23.2176 23.9179 18.4813 23.9179 12.6388C23.9179 6.79633 19.2119 2.06006 13.4067 2.06006C7.60153 2.06006 2.89551 6.79633 2.89551 12.6388C2.89551 18.4813 7.60153 23.2176 13.4067 23.2176Z" fill="url(#paint2_linear_1311_1187)"/>
<path d="M13.1408 19.6143C17.1196 19.6143 20.345 16.3682 20.345 12.3638C20.345 8.35954 17.1196 5.1134 13.1408 5.1134C9.16208 5.1134 5.93668 8.35954 5.93668 12.3638C5.93668 16.3682 9.16208 19.6143 13.1408 19.6143Z" fill="url(#paint3_linear_1311_1187)"/>
<path d="M13.1408 20.4354C17.5701 20.4354 21.1608 16.8217 21.1608 12.3639C21.1608 7.9061 17.5701 4.29236 13.1408 4.29236C8.71152 4.29236 5.12085 7.9061 5.12085 12.3639C5.12085 16.8217 8.71152 20.4354 13.1408 20.4354Z" fill="url(#paint4_linear_1311_1187)"/>
<path d="M13.1408 19.486C17.1196 19.486 20.345 16.2399 20.345 12.2356C20.345 8.23127 17.1196 4.98514 13.1408 4.98514C9.16208 4.98514 5.93668 8.23127 5.93668 12.2356C5.93668 16.2399 9.16208 19.486 13.1408 19.486Z" fill="url(#paint5_linear_1311_1187)"/>
<g filter="url(#filter0_d_1311_1187)">
<path d="M11.2032 8.19253L17.2345 12.122C17.5405 12.3236 17.5405 12.7745 17.2345 12.9761L11.2032 16.9055C10.8681 17.1255 10.4238 16.8799 10.4238 16.4803V8.62507C10.4238 8.22186 10.8681 7.97993 11.2032 8.19986V8.19253Z" fill="white"/>
</g>
<path d="M26.7442 22.2792L26.8353 22.4111C27.1922 22.928 27.1011 23.6171 26.6386 23.9397L22.9163 26.6155C22.4538 26.9381 21.7836 26.7804 21.4267 26.2599L21.3356 26.128C20.9787 25.6111 21.0698 24.922 21.5323 24.5995L25.2546 21.9236C25.7171 21.601 26.3873 21.7587 26.7442 22.2792Z" fill="white"/>
<path d="M22.3699 27.0004C21.9475 27.0004 21.514 26.7804 21.2409 26.3846L21.1498 26.2526C20.7237 25.6331 20.8366 24.8084 21.4048 24.4162L25.1234 21.744C25.6916 21.3481 26.5001 21.5314 26.9226 22.1509L27.0137 22.2828C27.4398 22.9023 27.3269 23.7271 26.7587 24.1193L23.0401 26.7914C22.8361 26.9307 22.603 27.0004 22.3699 27.0004ZM25.7972 21.9786C25.6479 21.9786 25.5058 22.0189 25.3783 22.1069L21.6597 24.7791C21.2919 25.0357 21.23 25.5818 21.514 25.9997L21.6051 26.1316C21.8928 26.5495 22.4246 26.6815 22.7852 26.4286L26.5038 23.7564C26.8716 23.4998 26.9335 22.9536 26.6495 22.5358L26.5584 22.4038C26.369 22.1289 26.0776 21.9786 25.7936 21.9786H25.7972Z" fill="black"/>
<path d="M18.8226 17.7009L18.7607 17.8072C18.5166 18.2251 17.9776 18.368 17.5624 18.1261C17.2565 17.9465 16.9614 17.7486 16.6701 17.5396C16.3787 17.3307 16.0983 17.1511 15.836 16.9311C15.5519 16.6966 15.3953 16.33 15.4135 15.9598C15.4317 15.5859 15.7049 15.2267 16.08 15.366C16.3751 15.4759 16.7283 15.6299 17.0088 15.7692C17.5005 16.0148 18.0359 16.2127 18.5094 16.4913C18.9246 16.7369 19.0666 17.2794 18.8262 17.6972L18.8226 17.7009Z" fill="white"/>
<path d="M17.9994 18.467C17.81 18.467 17.6206 18.4194 17.4495 18.3167C17.1727 18.1554 16.8849 17.9648 16.5426 17.7229L16.3168 17.5653C16.1092 17.4223 15.8943 17.272 15.694 17.1071C15.3589 16.8322 15.1695 16.3996 15.1913 15.9524C15.2059 15.6482 15.3516 15.366 15.5665 15.223C15.7413 15.1057 15.9489 15.0837 16.1529 15.1607C16.4479 15.2707 16.8048 15.4246 17.0998 15.5749C17.2819 15.6665 17.4713 15.7508 17.6607 15.8352C17.9776 15.9781 18.309 16.1247 18.6149 16.3043C18.8663 16.451 19.0484 16.6929 19.1212 16.9788C19.1977 17.2647 19.1576 17.5616 19.0083 17.8182L18.9464 17.9245C18.7424 18.2764 18.3746 18.4743 17.9958 18.4743L17.9994 18.467ZM15.9161 15.5602C15.8797 15.5602 15.8469 15.5712 15.8105 15.5932C15.7122 15.6592 15.6393 15.8132 15.632 15.9744C15.6175 16.2823 15.7449 16.5756 15.9744 16.7662C16.1602 16.9202 16.3678 17.0631 16.5681 17.2024L16.7975 17.3637C17.129 17.5983 17.4058 17.7816 17.6716 17.9392C17.9849 18.1224 18.3855 18.0161 18.5676 17.7009L18.6295 17.5946C18.7169 17.4443 18.7424 17.2647 18.6951 17.0961C18.6514 16.9238 18.5421 16.7809 18.3928 16.6929C18.1051 16.5243 17.7882 16.3813 17.4822 16.2457C17.2892 16.1577 17.0925 16.0734 16.9068 15.9781C16.6263 15.8388 16.2767 15.6885 15.9999 15.5822C15.9708 15.5712 15.9416 15.5639 15.9125 15.5639L15.9161 15.5602Z" fill="black"/>
<path d="M33.6861 33.1585C32.7756 33.734 31.9852 33.2795 30.8853 33.0265C29.738 32.7626 28.2812 32.1541 27.4034 31.399C26.7661 30.8492 27.0174 29.9731 26.9664 29.2217L26.8098 26.9051C26.7442 25.9227 26.675 24.9404 26.6094 23.9543L27.6365 21.876C27.8623 21.4178 28.3395 21.3408 28.7 21.7037L36.079 29.218C36.4614 29.6139 34.5238 32.3484 34.2579 32.6527C34.0758 32.8616 33.8864 33.0265 33.6861 33.1548V33.1585Z" fill="white"/>
<path d="M32.7428 33.6606C32.3276 33.6606 31.9161 33.5434 31.4936 33.4224C31.286 33.3637 31.0674 33.3014 30.838 33.2464C29.8109 33.0082 28.2594 32.429 27.2614 31.5676C26.7042 31.0874 26.726 30.4056 26.7479 29.8008C26.7552 29.6029 26.7624 29.4123 26.7479 29.2327L26.3873 23.9066L27.4399 21.777C27.5783 21.4947 27.815 21.3041 28.0845 21.2638C28.354 21.2198 28.6345 21.3261 28.8567 21.5497L36.2356 29.0641C36.8402 29.6872 34.451 32.7736 34.4255 32.8029C34.2361 33.0228 34.0285 33.2061 33.8027 33.3454C33.4385 33.5763 33.0888 33.657 32.7428 33.657V33.6606ZM26.8353 23.9983L27.1886 29.2034C27.2031 29.405 27.1959 29.6139 27.1886 29.8155C27.1704 30.3653 27.1521 30.8895 27.5491 31.2267C28.4269 31.9818 29.8837 32.5647 30.9363 32.8066C31.1767 32.8616 31.3989 32.9275 31.6138 32.9899C32.3822 33.2098 32.9359 33.3711 33.5659 32.9679C33.7517 32.8506 33.9302 32.6966 34.0868 32.5097C34.5165 32.0075 36.0062 29.7459 35.9005 29.3536C35.8787 29.339 35.3906 28.8405 28.5362 21.8613C28.416 21.7366 28.2776 21.678 28.1501 21.7C28.0226 21.722 27.9097 21.8173 27.8296 21.9749L26.8316 23.9983H26.8353Z" fill="black"/>
<path d="M19.206 17.8266L19.1455 17.9311C18.9012 18.3525 19.0426 18.8934 19.4613 19.1393L21.1475 20.1294C21.5662 20.3752 22.1037 20.2329 22.348 19.8115L22.4085 19.707C22.6528 19.2856 22.5114 18.7447 22.0927 18.4988L20.4065 17.5087C19.9878 17.2629 19.4503 17.4052 19.206 17.8266Z" fill="white"/>
<path d="M21.5906 20.4757C21.3975 20.4757 21.2118 20.4244 21.0406 20.3254L19.3507 19.3321C18.8262 19.0242 18.6514 18.346 18.9573 17.8219L19.0192 17.7156C19.3252 17.1877 19.999 17.0118 20.5198 17.3197L22.2097 18.3131C22.7342 18.621 22.909 19.2991 22.6031 19.8233L22.5412 19.9296C22.3955 20.1825 22.1551 20.3658 21.871 20.4391C21.7763 20.4647 21.6816 20.4757 21.5869 20.4757H21.5906ZM19.9698 17.6129C19.744 17.6129 19.5255 17.7302 19.4016 17.9392L19.3397 18.0455C19.1576 18.3607 19.2632 18.7639 19.5765 18.9472L21.2664 19.9406C21.4157 20.0285 21.5942 20.0542 21.7617 20.0065C21.9329 19.9625 22.075 19.8526 22.1624 19.7023L22.2243 19.596C22.4064 19.2808 22.3008 18.8775 21.9876 18.6943L20.3013 17.7009C20.1993 17.6386 20.0827 17.6093 19.9735 17.6093L19.9698 17.6129Z" fill="black"/>
<path d="M28.904 23.2652L28.8239 23.4045C28.5106 23.947 27.8405 24.1523 27.3379 23.8554L23.2295 21.5241C22.7269 21.2308 22.574 20.5417 22.8872 19.9992L22.9673 19.8599C23.2805 19.3174 23.9507 19.1122 24.4533 19.4091L28.5616 21.7403C29.0642 22.0336 29.2172 22.7227 28.904 23.2652Z" fill="white"/>
<path d="M27.8405 24.2109C27.6292 24.2109 27.418 24.1559 27.2249 24.046L23.1203 21.7184C22.5084 21.3591 22.319 20.5381 22.6978 19.8892L22.7779 19.75C23.1567 19.0975 23.9579 18.8592 24.5662 19.2185L28.6709 21.5461C29.2827 21.9053 29.4721 22.7264 29.0934 23.3752L29.0132 23.5145C28.7546 23.9617 28.2957 24.2109 27.8405 24.2109ZM23.9507 19.497C23.6447 19.497 23.3351 19.6693 23.1603 19.9736L23.0802 20.1128C22.8252 20.5527 22.9418 21.0989 23.3424 21.3335L27.4471 23.6611C27.8477 23.8957 28.3795 23.7307 28.6344 23.2909L28.7146 23.1516C28.9695 22.7117 28.853 22.1656 28.4523 21.931L24.3477 19.6033C24.2238 19.53 24.0891 19.497 23.9507 19.497Z" fill="black"/>
<path d="M23.2613 26.971C22.5903 26.7194 21.8436 27.0628 21.5935 27.7381C21.3434 28.4134 21.6847 29.1649 22.3557 29.4166L25.8709 30.7351C26.5419 30.9868 27.2886 30.6434 27.5386 29.968C27.7887 29.2927 27.4475 28.5412 26.7765 28.2896L23.2613 26.971Z" fill="white"/>
<path d="M26.3217 31.0398C26.1469 31.0398 25.9684 31.0105 25.7936 30.9445L22.2753 29.6249C21.8965 29.4819 21.5942 29.1997 21.4267 28.8295C21.2591 28.4593 21.2409 28.0414 21.383 27.6638C21.525 27.2826 21.8055 26.9784 22.1733 26.8098C22.5448 26.6412 22.9564 26.6228 23.3315 26.7658L26.8498 28.0854C27.6329 28.3786 28.0335 29.262 27.7421 30.0501C27.5163 30.6623 26.9336 31.0435 26.3181 31.0435L26.3217 31.0398ZM22.8107 27.1103C22.6577 27.1103 22.5048 27.1433 22.3627 27.2093C22.1005 27.3303 21.9002 27.5465 21.8018 27.8141C21.7035 28.0854 21.7144 28.3786 21.831 28.6389C21.9511 28.9028 22.166 29.1044 22.4319 29.2034L25.9502 30.523C26.2197 30.6219 26.5111 30.6109 26.7697 30.4936C27.0319 30.3727 27.2322 30.1564 27.3306 29.8888C27.5382 29.3317 27.2541 28.7049 26.6968 28.4959L23.1785 27.1763C23.0584 27.1323 22.9309 27.1103 22.807 27.1103H22.8107Z" fill="black"/>
<path d="M21.6488 27.8435L21.5687 27.9608C21.2591 28.419 20.6582 28.5619 20.2357 28.2723C19.9261 28.0597 19.6311 27.8032 19.3397 27.5649C18.7788 27.103 17.9812 26.5862 18.5567 25.9117C19.0265 25.3986 19.7622 25.5122 20.2539 25.7834C20.8112 26.095 20.9532 26.1976 21.4449 26.4799C21.8674 26.7695 21.9584 27.3816 21.6452 27.8398L21.6488 27.8435Z" fill="white"/>
<path d="M20.7274 28.6425C20.5052 28.6425 20.294 28.5766 20.1119 28.4519C19.8496 28.2723 19.5983 28.0634 19.3543 27.8581L19.0338 27.5942C18.6368 27.2753 18.1852 26.9161 18.1415 26.4469C18.1196 26.2123 18.2034 25.9814 18.3928 25.7614C18.9245 25.1749 19.7659 25.2519 20.3632 25.5855C20.6983 25.7724 20.884 25.886 21.0843 26.007C21.2191 26.0877 21.3575 26.172 21.5542 26.2856C21.8237 26.4689 21.9912 26.7438 22.0386 27.0627C22.0859 27.3743 22.0094 27.6968 21.8273 27.9644L21.7472 28.0817C21.5651 28.3493 21.2956 28.5399 20.9896 28.6095C20.8986 28.6315 20.8112 28.6389 20.7238 28.6389L20.7274 28.6425ZM19.4053 25.7761C19.1613 25.7761 18.9173 25.8494 18.7242 26.0583C18.6222 26.1793 18.5749 26.2966 18.5858 26.4066C18.6113 26.6851 18.9828 26.9857 19.3142 27.246L19.642 27.5135C19.8788 27.7078 20.1192 27.9131 20.3668 28.0817C20.5198 28.188 20.7092 28.2173 20.8986 28.1733C21.0952 28.1257 21.2701 28.0047 21.3903 27.8288L21.4704 27.7115C21.5906 27.5355 21.6379 27.3266 21.6088 27.125C21.5797 26.9307 21.4813 26.7658 21.3283 26.6595C21.1426 26.5532 21.0006 26.4652 20.8658 26.3846C20.6691 26.2673 20.487 26.1573 20.1556 25.974C19.9771 25.8751 19.6967 25.7724 19.4089 25.7724L19.4053 25.7761Z" fill="black"/>
<path d="M18.9355 18.665C19.3901 18.665 19.7586 18.2941 19.7586 17.8366C19.7586 17.3791 19.3901 17.0082 18.9355 17.0082C18.4809 17.0082 18.1124 17.3791 18.1124 17.8366C18.1124 18.2941 18.4809 18.665 18.9355 18.665Z" fill="#00FFFF"/>
<path d="M18.9355 18.8079C18.7789 18.8079 18.6223 18.7713 18.4766 18.6906C18.0104 18.434 17.8392 17.8439 18.0941 17.3747C18.3491 16.9055 18.9355 16.7332 19.4017 16.9898C19.6275 17.1144 19.7914 17.3197 19.8642 17.569C19.9371 17.8182 19.9079 18.0785 19.7841 18.3057C19.6093 18.6283 19.2778 18.8116 18.9391 18.8116L18.9355 18.8079ZM18.9355 17.1474C18.6915 17.1474 18.4584 17.2757 18.3345 17.5067C18.1524 17.8402 18.2763 18.2618 18.6077 18.4414C18.9391 18.6246 19.3543 18.5 19.5364 18.1665C19.7185 17.8329 19.5947 17.4114 19.2633 17.2317C19.1576 17.1731 19.0484 17.1474 18.9355 17.1474Z" fill="black"/>
<path d="M18.9356 18.1701C19.1186 18.1701 19.267 18.0208 19.267 17.8366C19.267 17.6523 19.1186 17.503 18.9356 17.503C18.7525 17.503 18.6041 17.6523 18.6041 17.8366C18.6041 18.0208 18.7525 18.1701 18.9356 18.1701Z" fill="white"/>
<path d="M18.9355 18.1921C18.8772 18.1921 18.8189 18.1774 18.7679 18.1481C18.6841 18.1041 18.6259 18.0271 18.6004 17.9355C18.5749 17.8439 18.5858 17.7486 18.6295 17.6642C18.6732 17.5799 18.7497 17.5213 18.8408 17.492C18.9318 17.4663 19.0265 17.4773 19.1103 17.5213C19.2815 17.6166 19.3434 17.8292 19.2523 18.0015C19.2086 18.0858 19.1321 18.1444 19.0411 18.1701C19.0083 18.1811 18.9755 18.1848 18.9427 18.1848L18.9355 18.1921ZM18.9355 17.5286C18.9063 17.5286 18.8772 17.5323 18.848 17.5396C18.7679 17.5616 18.706 17.6166 18.6659 17.6862C18.5858 17.8365 18.6404 18.0235 18.7861 18.1041C18.859 18.1444 18.9391 18.1518 19.0192 18.1298C19.0994 18.1078 19.1613 18.0528 19.2013 17.9831C19.2815 17.8329 19.2268 17.6459 19.0811 17.5653C19.0338 17.5396 18.9864 17.5286 18.9355 17.5286Z" fill="black"/>
<path d="M22.716 20.747C23.1706 20.747 23.5391 20.3761 23.5391 19.9186C23.5391 19.461 23.1706 19.0901 22.716 19.0901C22.2614 19.0901 21.8929 19.461 21.8929 19.9186C21.8929 20.3761 22.2614 20.747 22.716 20.747Z" fill="#00FFFF"/>
<path d="M22.716 20.8863C22.5594 20.8863 22.4028 20.8496 22.2571 20.769C21.7909 20.5124 21.6198 19.9222 21.8747 19.453C22.1297 18.9838 22.716 18.8116 23.1822 19.0682C23.6484 19.3247 23.8196 19.9149 23.5646 20.3841C23.3898 20.7067 23.0584 20.8899 22.716 20.8899V20.8863ZM22.7197 19.2294C22.4757 19.2294 22.2426 19.3577 22.1151 19.5887C21.933 19.9222 22.0568 20.3438 22.3882 20.5234C22.7197 20.703 23.1385 20.582 23.317 20.2485C23.4991 19.9149 23.3753 19.4934 23.0438 19.3137C22.9382 19.2551 22.8289 19.2294 22.716 19.2294H22.7197Z" fill="black"/>
<path d="M22.7162 20.2522C22.8992 20.2522 23.0476 20.1028 23.0476 19.9186C23.0476 19.7344 22.8992 19.585 22.7162 19.585C22.5331 19.585 22.3847 19.7344 22.3847 19.9186C22.3847 20.1028 22.5331 20.2522 22.7162 20.2522Z" fill="white"/>
<path d="M22.716 20.2705C22.6577 20.2705 22.5995 20.2558 22.5485 20.2265C22.3773 20.1312 22.3154 19.9149 22.4064 19.7463C22.5011 19.574 22.716 19.5117 22.8836 19.6033C23.0547 19.6986 23.1166 19.9149 23.0256 20.0835C22.96 20.2008 22.8398 20.2668 22.716 20.2668V20.2705ZM22.7197 19.6107C22.6104 19.6107 22.5048 19.6693 22.4501 19.772C22.37 19.9222 22.4246 20.1092 22.5703 20.1898C22.7197 20.2705 22.9054 20.2155 22.9855 20.0689C23.0657 19.9186 23.011 19.7316 22.8653 19.651C22.818 19.6253 22.767 19.6143 22.7197 19.6143V19.6107Z" fill="black"/>
<path d="M21.4595 28.5179C21.9141 28.5179 22.2826 28.147 22.2826 27.6895C22.2826 27.232 21.9141 26.8611 21.4595 26.8611C21.0049 26.8611 20.6364 27.232 20.6364 27.6895C20.6364 28.147 21.0049 28.5179 21.4595 28.5179Z" fill="#00FFFF"/>
<path d="M21.4558 28.6572C21.2992 28.6572 21.1426 28.6205 20.9969 28.5399C20.7711 28.4152 20.6072 28.21 20.5344 27.9607C20.4615 27.7115 20.4907 27.4512 20.6145 27.2239C20.7383 26.9967 20.9423 26.8317 21.19 26.7584C21.4376 26.6851 21.6962 26.7144 21.922 26.8391C22.3882 27.0957 22.5594 27.6858 22.3045 28.155C22.1296 28.4776 21.7982 28.6608 21.4595 28.6608L21.4558 28.6572ZM21.4595 26.9967C21.3939 26.9967 21.3284 27.0077 21.2665 27.026C21.0916 27.0773 20.9459 27.1946 20.8585 27.3559C20.7711 27.5172 20.7493 27.7041 20.8039 27.8801C20.8549 28.056 20.9714 28.2026 21.1317 28.2906C21.4631 28.4739 21.882 28.3493 22.0604 28.0157C22.2425 27.6821 22.1187 27.2606 21.7873 27.081C21.6853 27.026 21.5724 26.9967 21.4595 26.9967Z" fill="black"/>
<path d="M21.4597 28.0231C21.6427 28.0231 21.7911 27.8738 21.7911 27.6896C21.7911 27.5053 21.6427 27.356 21.4597 27.356C21.2766 27.356 21.1282 27.5053 21.1282 27.6896C21.1282 27.8738 21.2766 28.0231 21.4597 28.0231Z" fill="white"/>
<path d="M21.4595 28.0451C21.4012 28.0451 21.343 28.0304 21.292 28.0011C21.1208 27.9058 21.0589 27.6932 21.1499 27.5209C21.1936 27.4366 21.2701 27.3779 21.3612 27.3523C21.4522 27.3229 21.5469 27.3339 21.6307 27.3816C21.7145 27.4256 21.7727 27.5026 21.7982 27.5942C21.8237 27.6858 21.8128 27.7811 21.7691 27.8654C21.7254 27.9497 21.6489 28.0084 21.5579 28.0377C21.5251 28.0487 21.4923 28.0524 21.4595 28.0524V28.0451ZM21.4595 27.3779C21.4304 27.3779 21.4012 27.3816 21.3721 27.3889C21.2956 27.4109 21.2301 27.4659 21.19 27.5355C21.1099 27.6858 21.1645 27.8728 21.3102 27.9534C21.383 27.9937 21.4632 28.0011 21.5433 27.9791C21.6234 27.9571 21.6853 27.9021 21.7254 27.8325C21.8055 27.6822 21.7509 27.4952 21.6052 27.4146C21.5579 27.3889 21.5105 27.3779 21.4595 27.3779Z" fill="black"/>
<path d="M26.7879 31.3147C27.681 31.3147 28.405 30.586 28.405 29.6872C28.405 28.7883 27.681 28.0597 26.7879 28.0597C25.8948 28.0597 25.1708 28.7883 25.1708 29.6872C25.1708 30.586 25.8948 31.3147 26.7879 31.3147Z" fill="#00FFFF"/>
<path d="M26.7879 31.454C26.4965 31.454 26.2088 31.3807 25.9466 31.2378C25.535 31.0105 25.2363 30.6366 25.1016 30.1857C24.9668 29.7349 25.0214 29.2547 25.2473 28.8405C25.7098 27.9864 26.7806 27.6675 27.6292 28.1367C28.4778 28.6059 28.7911 29.6799 28.3285 30.534C28.1027 30.9482 27.7312 31.2488 27.2832 31.3844C27.1193 31.432 26.9518 31.4577 26.7879 31.4577V31.454ZM26.7915 28.199C26.2671 28.199 25.7608 28.4776 25.4913 28.9725C25.3019 29.3207 25.2582 29.7239 25.3711 30.1051C25.484 30.4863 25.7353 30.8016 26.0813 30.9922C26.4273 31.1828 26.8279 31.2268 27.2067 31.1131C27.5855 30.9995 27.8987 30.7466 28.0881 30.3984C28.4778 29.6799 28.2156 28.7708 27.4981 28.3786C27.2723 28.254 27.0319 28.1954 26.7915 28.1954V28.199Z" fill="black"/>
<path d="M26.7881 30.501C27.2346 30.501 27.5966 30.1366 27.5966 29.6872C27.5966 29.2378 27.2346 28.8735 26.7881 28.8735C26.3415 28.8735 25.9795 29.2378 25.9795 29.6872C25.9795 30.1366 26.3415 30.501 26.7881 30.501Z" fill="white"/>
<path d="M26.7879 30.5707C26.6459 30.5707 26.5002 30.5377 26.3691 30.4644C25.9429 30.2298 25.7863 29.6909 26.0194 29.2657C26.2525 28.8405 26.7843 28.6792 27.2104 28.9138C27.6365 29.1484 27.7931 29.6873 27.56 30.1125C27.3998 30.4057 27.0975 30.5743 26.7879 30.5743V30.5707ZM26.7915 28.9432C26.5293 28.9432 26.2744 29.0824 26.1396 29.3317C25.9429 29.6909 26.0777 30.1454 26.4346 30.3434C26.7916 30.5413 27.2432 30.4057 27.4362 30.0465C27.6329 29.6873 27.4981 29.2327 27.1412 29.0348C27.0283 28.9725 26.9081 28.9432 26.7879 28.9432H26.7915Z" fill="black"/>
<path d="M27.7385 24.5151C28.6316 24.5151 29.3556 23.7865 29.3556 22.8876C29.3556 21.9888 28.6316 21.2601 27.7385 21.2601C26.8454 21.2601 26.1214 21.9888 26.1214 22.8876C26.1214 23.7865 26.8454 24.5151 27.7385 24.5151Z" fill="#00FFFF"/>
<path d="M27.7385 24.6544C27.4471 24.6544 27.1594 24.5811 26.8971 24.4382C26.0485 23.9726 25.7317 22.895 26.1978 22.0409C26.664 21.1868 27.7312 20.8716 28.5798 21.3371C29.4284 21.8063 29.7416 22.8803 29.2791 23.7344C29.0533 24.1486 28.6818 24.4492 28.2338 24.5848C28.0699 24.6324 27.9024 24.6581 27.7385 24.6581V24.6544ZM27.7421 21.3994C27.2176 21.3994 26.7114 21.678 26.4419 22.1729C26.0522 22.8913 26.3144 23.8004 27.0319 24.1926C27.3779 24.3832 27.7785 24.4272 28.1573 24.3135C28.5361 24.1999 28.8493 23.947 29.0387 23.5988C29.2281 23.2505 29.2718 22.8473 29.1589 22.4661C29.0496 22.0849 28.7947 21.7696 28.4487 21.579C28.2229 21.4544 27.9825 21.3958 27.7421 21.3958V21.3994Z" fill="black"/>
<path d="M27.7386 23.7014C28.1852 23.7014 28.5472 23.3371 28.5472 22.8876C28.5472 22.4382 28.1852 22.0739 27.7386 22.0739C27.2921 22.0739 26.9301 22.4382 26.9301 22.8876C26.9301 23.3371 27.2921 23.7014 27.7386 23.7014Z" fill="white"/>
<path d="M27.7386 23.771C27.5965 23.771 27.4508 23.738 27.3197 23.6647C26.8936 23.4301 26.737 22.8913 26.9701 22.4661C27.2032 22.0409 27.7386 21.8796 28.161 22.1142C28.5872 22.3488 28.7438 22.8876 28.5107 23.3128C28.3504 23.6061 28.0481 23.771 27.7386 23.771ZM27.7422 22.1435C27.48 22.1435 27.225 22.2828 27.0903 22.5321C26.8936 22.8913 27.0283 23.3458 27.3853 23.5438C27.7422 23.7417 28.1938 23.6061 28.3905 23.2469C28.5872 22.8876 28.4524 22.4331 28.0955 22.2388C27.9826 22.1765 27.8624 22.1472 27.7422 22.1472V22.1435Z" fill="black"/>
<path d="M36.6872 31.8865C37.2627 31.2817 37.3137 30.2444 36.8038 29.5846L35.9406 28.4666C35.4307 27.8068 34.6804 27.8654 34.2761 28.5985L32.222 32.3301C31.8177 33.0632 32.0144 33.9392 32.6554 34.2801C33.2964 34.621 34.2943 34.4048 34.8698 33.7999L36.6872 31.8902V31.8865Z" fill="white"/>
<path d="M33.3546 34.6614C33.0669 34.6614 32.7901 34.6027 32.5534 34.4781C32.2183 34.3021 31.9743 33.9942 31.8577 33.6093C31.7266 33.1621 31.7885 32.6563 32.0289 32.2201L34.0831 28.4886C34.3162 28.067 34.6585 27.8178 35.0519 27.7885C35.4416 27.7591 35.8204 27.9497 36.1154 28.331L36.9786 29.449C37.554 30.1967 37.4957 31.3587 36.8474 32.0405L35.03 33.9502C34.5966 34.4048 33.952 34.6614 33.3546 34.6614ZM35.132 28.232C35.132 28.232 35.1029 28.232 35.0883 28.232C34.8516 28.2503 34.633 28.4189 34.4728 28.7048L32.4186 32.4364C32.2365 32.7663 32.1892 33.1475 32.2875 33.481C32.3676 33.7486 32.5352 33.9612 32.7646 34.0822C33.3182 34.3754 34.2105 34.1738 34.7168 33.6423L36.5342 31.7326C37.0296 31.2121 37.0769 30.292 36.6362 29.7239L35.773 28.6059C35.5873 28.364 35.3615 28.232 35.1393 28.232H35.132Z" fill="black"/>
<mask id="mask1_1311_1187" style="mask-type:luminance" maskUnits="userSpaceOnUse" x="10" y="8" width="8" height="9">
<path d="M11.2032 8.19253L17.2345 12.122C17.5405 12.3236 17.5405 12.7745 17.2345 12.9761L11.2032 16.9055C10.8681 17.1255 10.4238 16.8799 10.4238 16.4803V8.62507C10.4238 8.22186 10.8681 7.97993 11.2032 8.19986V8.19253Z" fill="white"/>
</mask>
<g mask="url(#mask1_1311_1187)">
<path d="M9.7478 7.14377L8.80988 8.60681L17.8167 14.4553L18.7546 12.9923L9.7478 7.14377Z" fill="url(#paint6_linear_1311_1187)"/>
</g>
</g>
<defs>
<filter id="filter0_d_1311_1187" x="9.42376" y="7.1167" width="9.04024" height="10.8714" filterUnits="userSpaceOnUse" color-interpolation-filters="sRGB">
<feFlood flood-opacity="0" result="BackgroundImageFix"/>
<feColorMatrix in="SourceAlpha" type="matrix" values="0 0 0 0 0 0 0 0 0 0 0 0 0 0 0 0 0 0 127 0" result="hardAlpha"/>
<feOffset/>
<feGaussianBlur stdDeviation="0.5"/>
<feColorMatrix type="matrix" values="0 0 0 0 0 0 0 0 0 0 0 0 0 0 0 0 0 0 0.75 0"/>
<feBlend mode="normal" in2="BackgroundImageFix" result="effect1_dropShadow_1311_1187"/>
<feBlend mode="normal" in="SourceGraphic" in2="effect1_dropShadow_1311_1187" result="shape"/>
</filter>
<linearGradient id="paint0_linear_1311_1187" x1="16.3605" y1="40.4236" x2="16.3605" y2="-5.70355" gradientUnits="userSpaceOnUse">
<stop offset="0.2" stop-color="#00FFFF"/>
<stop offset="0.7" stop-color="#FFFF00"/>
</linearGradient>
<linearGradient id="paint1_linear_1311_1187" x1="13.4067" y1="23.7637" x2="13.4067" y2="1.51389" gradientUnits="userSpaceOnUse">
<stop stop-color="#00FFFF"/>
<stop offset="1" stop-color="#6C00AA"/>
</linearGradient>
<linearGradient id="paint2_linear_1311_1187" x1="13.4067" y1="2.06006" x2="13.4067" y2="23.2176" gradientUnits="userSpaceOnUse">
<stop stop-color="#00FFFF"/>
<stop offset="1" stop-color="#6C00AA"/>
</linearGradient>
<linearGradient id="paint3_linear_1311_1187" x1="13.1408" y1="19.6143" x2="13.1408" y2="5.1134" gradientUnits="userSpaceOnUse">
<stop stop-color="#FF8DA4"/>
<stop offset="1" stop-color="#AA0047"/>
</linearGradient>
<linearGradient id="paint4_linear_1311_1187" x1="13.1408" y1="4.29236" x2="13.1408" y2="20.4354" gradientUnits="userSpaceOnUse">
<stop stop-color="#00FFFF"/>
<stop offset="1" stop-color="#6C00AA"/>
</linearGradient>
<linearGradient id="paint5_linear_1311_1187" x1="13.1408" y1="19.486" x2="13.1408" y2="4.98514" gradientUnits="userSpaceOnUse">
<stop stop-color="#00FFFF"/>
<stop offset="1" stop-color="#6C00AA"/>
</linearGradient>
<linearGradient id="paint6_linear_1311_1187" x1="13.1695" y1="11.752" x2="14.1209" y2="10.2868" gradientUnits="userSpaceOnUse">
<stop stop-color="white" stop-opacity="0"/>
<stop offset="1" stop-color="#727171"/>
</linearGradient>
</defs>
</svg>
