<svg width="101" height="22" viewBox="0 0 101 22" fill="none" xmlns="http://www.w3.org/2000/svg">
<g id="&#232;&#179;&#135;&#231;&#148;&#162; 1 2" clip-path="url(#clip0_359_587)">
<g id="&#229;&#156;&#150;&#229;&#177;&#164; 1">
<g id="Group">
<path id="Vector" d="M12.9527 14.5937C13.0458 14.5937 13.1233 14.5771 13.1832 14.5462C13.243 14.5152 13.3073 14.4181 13.3383 14.2094C13.3693 14.0008 13.3848 13.5545 13.3848 12.9616C13.7084 13.2488 14.3732 13.602 14.8208 13.7611C14.7743 14.3685 14.7122 15.0089 14.6036 15.2796C14.4795 15.5833 14.2646 15.7589 13.9854 15.9035C13.7527 16.015 13.3671 16.0481 13.1056 16.0481H12.1793C11.8092 16.0481 11.3461 15.9365 11.0669 15.6638C10.7898 15.3911 10.6658 15.0564 10.6658 14.0813V11.9224H9.77048C9.56882 14.0813 8.89071 15.3932 6.0963 16.1762C5.95669 15.7754 5.58661 15.1845 5.24756 14.8333C3.64094 15.1845 2.03653 15.5047 0.740154 15.7774L0.385589 14.0503C1.03489 13.9553 1.82158 13.8417 2.67032 13.6826V9.50944H0.587248V7.91042H2.67253V6.74317H1.31411V6.19983C1.11245 6.40849 0.897492 6.60062 0.695833 6.77623C0.587248 6.34445 0.248195 5.27224 0 4.80947C1.1745 3.94591 2.36229 2.55348 3.05591 1.09907L4.41433 1.73951C4.32126 1.93164 4.22819 2.12377 4.13733 2.3159C5.14119 2.90675 6.09851 3.61123 6.67025 4.18763L6.16056 5.06771H8.04419C7.95112 4.68345 7.82702 4.25167 7.67411 3.88394L8.92395 3.62776H6.46859V2.18781H9.44915C9.35608 1.93164 9.24749 1.67547 9.12561 1.46887L10.7477 1.06808C10.9339 1.3883 11.1488 1.80355 11.304 2.18781H14.3156V3.62776H11.7981L13.2031 3.88394C13.0014 4.31571 12.802 4.7165 12.6314 5.06771H14.577V6.53864H6.06749V5.22678L5.79049 5.69162L5.74395 5.6441V6.7473H4.26143V7.91455H6.2071V9.51357H4.26143V13.3996L6.34671 12.9988L6.4553 14.3106C7.59877 13.8148 7.9068 13.0628 8.0464 11.9286H6.8431V7.09851H13.9765V11.9286H12.3699V14.135C12.3699 14.3437 12.3854 14.4718 12.4319 14.5193C12.4785 14.5668 12.5405 14.5999 12.6336 14.5999H12.9571L12.9527 14.5937ZM1.88363 10.1168C2.14512 10.9969 2.36229 12.1311 2.43985 12.8666L1.20552 13.2178C1.1745 12.4492 0.959541 11.2985 0.726858 10.4184L1.88584 10.1148L1.88363 10.1168ZM5.24977 5.15861C4.70906 4.66279 4.01545 4.16697 3.31961 3.7042C2.99607 4.21655 2.62378 4.69584 2.2537 5.15861H5.24977ZM4.43206 12.5794C4.64923 11.8749 4.8797 10.7407 4.97277 9.98873L6.30017 10.3255C6.02317 11.2221 5.77497 12.2282 5.56002 12.8996L4.43206 12.5794ZM8.38324 8.9661H12.3522V8.26162H8.38324V8.9661ZM8.38324 10.7573H12.3522V10.0528H8.38324V10.7573ZM9.16993 3.62363C9.37159 4.05541 9.58655 4.6318 9.66411 5.06358H11.038C11.2242 4.61527 11.4236 4.05541 11.5167 3.62363H9.16993Z" fill="#003467"/>
<path id="Vector_2" d="M20.1482 5.2867H22.619V6.88573H21.1055L22.0318 7.12537C21.7703 7.68524 21.4911 8.22858 21.2451 8.74092H22.311V10.3399H20.1504V11.6188H22.6213V13.2178H20.1504V16.0646H18.4529V13.2178H15.7826V11.6188H18.4529V10.3399H16.1527V8.74092H17.2496C17.141 8.26163 16.9106 7.65425 16.7089 7.15843L17.5731 6.88573H15.7981V5.2867H18.4529V4.1835H16.2147V2.61547H18.4529V1.23956H20.1504V2.61547H22.2645V4.1835H20.1504V5.2867H20.1482ZM19.716 8.74092C19.993 8.15007 20.2723 7.46212 20.4562 6.88573H18.0939C18.3554 7.42906 18.6191 8.0695 18.6967 8.50128L18.0008 8.74092H19.7138H19.716ZM29.7835 7.68524C29.491 9.57142 28.9502 11.3151 28.1768 12.8025C28.7951 13.5215 29.5043 14.0979 30.2909 14.5131C29.9054 14.8643 29.3646 15.5523 29.0876 16.0171C28.3918 15.5853 27.7602 15.0255 27.1885 14.354C26.6788 15.0585 26.0916 15.6494 25.429 16.1617C25.2583 15.889 24.9813 15.5853 24.7043 15.2982V16.0977H23.0379V1.86347H29.4134V4.86939C29.4134 5.68543 29.2428 6.14819 28.6422 6.40437C28.055 6.66054 27.2217 6.67707 26.0938 6.67707C26.0162 6.16472 25.7858 5.50982 25.5686 5.04499C26.3242 5.07598 27.1752 5.07598 27.4057 5.07598C27.6361 5.05945 27.7137 5.01194 27.7137 4.83633V3.52447H24.7021V7.34643H28.3763L28.6688 7.26586L29.7813 7.68111L29.7835 7.68524ZM24.7043 14.4821C25.2606 14.0173 25.7237 13.4739 26.1403 12.8666C25.5531 11.8915 25.0899 10.7717 24.7043 9.57142V14.4821ZM25.9852 8.85248C26.2622 9.68505 26.619 10.499 27.0511 11.2345C27.3902 10.499 27.6539 9.68298 27.8533 8.85248H25.9852Z" fill="#003467"/>
<path id="Vector_3" d="M35.4033 10.1643V15.8745H34.6787V10.1643H31.4676V9.45986H34.6787V7.52409H31.4056V6.83614H35.7446C36.0681 6.0201 36.4537 4.82187 36.6709 4.00583L37.38 4.19796C37.103 5.04499 36.7617 6.06968 36.4382 6.83614H38.5833V7.52409H35.4033V9.45986H38.4747V10.1643H35.4033ZM33.6593 11.3646C33.2892 12.5319 32.6709 13.7466 32.0371 14.5482C31.9286 14.4532 31.6516 14.228 31.4809 14.1474C32.1302 13.3645 32.6687 12.2757 33.01 11.2056L33.6593 11.3646ZM38.3528 3.83229H31.636V3.14434H34.9246C34.7075 2.64852 34.3839 2.04114 34.1224 1.5763L34.8316 1.36765C35.1706 1.92751 35.5562 2.63199 35.7579 3.14227H38.3506V3.83022L38.3528 3.83229ZM33.4288 6.6626C33.3513 6.00771 33.0898 4.95202 32.764 4.1835L33.3823 4.03888C33.7213 4.8074 34.0161 5.83004 34.0914 6.47047L33.4266 6.6626H33.4288ZM36.8858 11.156C37.411 12.003 37.9672 13.0918 38.2132 13.8107L37.6415 14.1309C37.3955 13.3954 36.8393 12.2592 36.3451 11.4122L36.8858 11.156ZM45.3001 7.5902H43.4475V15.827H42.7228V7.5902H40.1899V8.37319C40.1899 10.6292 39.9883 13.6991 38.508 15.8105C38.3994 15.6514 38.1224 15.4262 37.9517 15.3312C39.3567 13.3314 39.4963 10.5341 39.4963 8.37525V2.96873C41.2403 2.68157 43.2946 2.23327 44.3915 1.78496L45.0408 2.36135C43.7755 2.82619 41.8918 3.24144 40.1921 3.48108V6.87126H45.3023V7.5902H45.3001Z" fill="url(#paint0_linear_359_587)"/>
<path id="Vector_4" d="M48.2496 6.93323V15.9365H47.525V2.11963H52.9432V6.93323H48.2496ZM48.2496 2.74354V4.19795H52.2318V2.74354H48.2496ZM52.234 6.30932V4.82185H48.2518V6.30932H52.234ZM56.3714 13.6516V15.4118H55.6755V13.6516H49.4219V13.0112H51.1194V8.61282H49.8385V7.98891H57.6345V8.61282H56.3691V13.0112H57.9447V13.6516H56.3691H56.3714ZM51.8019 8.61282V9.6995H55.6777V8.61282H51.8019ZM51.8019 11.3481H55.6777V10.2759H51.8019V11.3481ZM55.6755 13.0112V11.939H51.7997V13.0112H55.6755ZM60.0766 14.8188C60.0766 15.3787 59.9525 15.6184 59.5824 15.763C59.2278 15.8911 58.563 15.9076 57.5281 15.9076C57.4971 15.6989 57.3885 15.3808 57.2799 15.1556C58.0976 15.1721 58.84 15.1721 59.055 15.1556C59.2721 15.1556 59.3475 15.075 59.3475 14.8354V6.93529H54.5143V2.11963H60.0721V14.8188H60.0766ZM55.2279 2.74354V4.19795H59.3497V2.74354H55.2279ZM59.3519 6.30932V4.82185H55.2301V6.30932H59.3519Z" fill="url(#paint1_linear_359_587)"/>
<path id="Vector_5" d="M63.6289 11.6353C63.4117 13.0112 63.1192 14.5131 62.7956 15.5047C62.656 15.4407 62.3635 15.3126 62.1774 15.2486C62.5474 14.2404 62.8112 12.817 62.9796 11.5217L63.6289 11.6332V11.6353ZM66.7003 7.39807C67.1324 8.38971 67.5956 9.71604 67.7817 10.5011L67.1479 10.7407C67.1014 10.4846 67.0238 10.1974 66.9308 9.87718C63.2256 10.468 62.7934 10.5817 62.5297 10.7242C62.4987 10.5486 62.3901 10.1643 62.2993 9.97221C62.5763 9.92469 62.933 9.49292 63.3652 8.9C63.6267 8.57978 64.1984 7.76374 64.8322 6.75763C62.9485 6.99728 62.625 7.07785 62.4544 7.17289C62.4078 6.99728 62.2993 6.64608 62.2084 6.43742C62.4544 6.3899 62.7026 6.02217 63.0261 5.54081C63.3652 5.04499 64.4776 3.17326 65.1712 1.41516L65.836 1.73538C65.0959 3.35093 64.2006 5.03052 63.2876 6.27628L65.2488 6.08414C65.6654 5.37967 66.0665 4.61321 66.4233 3.86121L67.0726 4.21242C66.0067 6.21223 64.7723 8.20998 63.507 9.74496L66.7335 9.26566C66.5474 8.68927 66.3324 8.09842 66.1153 7.56954L66.7025 7.39394L66.7003 7.39807ZM65.1734 11.4762C65.3596 12.5629 65.559 13.9718 65.6056 14.8994L64.9873 15.044C64.9408 14.0999 64.7701 12.6765 64.5707 11.6064L65.1734 11.4783V11.4762ZM66.8244 11.125C67.1789 12.1166 67.58 13.412 67.7662 14.2445L67.1789 14.4532C67.0083 13.5896 66.6072 12.2943 66.2682 11.3027L66.8244 11.1271V11.125ZM75.8259 14.8829C75.8259 15.4097 75.7018 15.6349 75.3783 15.7795C75.0547 15.9076 74.4365 15.9241 73.5257 15.9076C73.4791 15.7155 73.3861 15.3953 73.293 15.1721C74.0176 15.2031 74.6669 15.1887 74.8686 15.1887C75.0702 15.1721 75.1301 15.1081 75.1301 14.9015V2.93568H68.8144V15.9386H68.1186V2.21674H75.8237V14.8829H75.8259ZM69.2797 6.30933H72.5683C72.8453 5.50982 73.2176 4.30952 73.3861 3.51001L74.0198 3.71866C73.7583 4.55123 73.4326 5.55733 73.1401 6.30933H74.7755V6.98075H69.2797V6.30933ZM73.5877 12.0526C73.8647 12.0526 74.2968 12.0526 74.545 11.9885C74.5606 12.1972 74.5916 12.4678 74.6226 12.629C74.4209 12.693 74.0198 12.693 73.6187 12.693H71.1789C70.3457 12.693 70.1285 12.3728 70.1285 11.4783V9.5425H69.4947V8.87107H71.919C71.7794 8.40624 71.4404 7.73482 71.1634 7.239L71.7041 6.99935C71.9966 7.49517 72.3534 8.19965 72.5063 8.6149L72.0276 8.87107H74.4985V9.5425H70.7933V11.4927C70.7933 11.9245 70.8553 12.0526 71.1944 12.0526H73.5877ZM70.4986 3.47902C70.9307 4.19796 71.3163 5.20613 71.4559 5.86103L70.8997 6.06968C70.7601 5.41479 70.39 4.40662 69.9734 3.65462L70.4986 3.47902Z" fill="url(#paint2_linear_359_587)"/>
</g>
<g id="Group_2">
<g id="Group_3">
<path id="Vector_6" d="M88.8805 8.9413L88.9824 9.07765C89.3835 9.61686 89.286 10.3337 88.7674 10.6684L84.608 13.4388C84.0894 13.7735 83.3382 13.6041 82.9371 13.0649L82.8351 12.9285C82.434 12.3893 82.5315 11.6725 83.0501 11.3378L87.2096 8.56737C87.7281 8.23269 88.4794 8.4021 88.8805 8.9413Z" fill="white"/>
<path id="Vector_7" d="M84.0074 13.9698C83.8856 13.9698 83.7615 13.9553 83.6374 13.9284C83.2296 13.8375 82.8662 13.602 82.6202 13.2694L82.5183 13.131C81.9953 12.4265 82.1371 11.4906 82.8307 11.0423L86.9858 8.274C87.3315 8.05088 87.7547 7.98064 88.1802 8.07568C88.588 8.16658 88.9514 8.40209 89.1974 8.73677L89.2993 8.87312C89.8223 9.5776 89.6805 10.5135 88.9869 10.9618L84.8318 13.7301C84.5858 13.8892 84.3022 13.9698 84.0074 13.9698ZM87.8101 8.7533C87.6705 8.7533 87.5376 8.79048 87.4268 8.86073L83.2717 11.6291C82.9216 11.8542 82.8684 12.3439 83.1498 12.7219L83.2518 12.8604C83.3914 13.0483 83.593 13.1806 83.8169 13.2302C84.0252 13.2777 84.229 13.2467 84.3886 13.1434L88.5436 10.375C88.8938 10.1499 88.947 9.66024 88.6655 9.28217L88.5636 9.14376C88.424 8.95576 88.2245 8.82354 87.9985 8.77396C87.9342 8.7595 87.8722 8.7533 87.8101 8.7533Z" fill="#003467"/>
</g>
<g id="Group_4">
<path id="Vector_8" d="M76.4574 4.2434C77.6421 4.2434 78.6026 3.34805 78.6026 2.24359C78.6026 1.13912 77.6421 0.243774 76.4574 0.243774C75.2727 0.243774 74.3123 1.13912 74.3123 2.24359C74.3123 3.34805 75.2727 4.2434 76.4574 4.2434Z" fill="#00FFFF"/>
<path id="Vector_9" d="M76.4574 4.48718C75.13 4.48718 74.0508 3.48108 74.0508 2.24359C74.0508 1.0061 75.13 0 76.4574 0C77.7848 0 78.8641 1.0061 78.8641 2.24359C78.8641 3.48108 77.7848 4.48718 76.4574 4.48718ZM76.4574 0.485492C75.4181 0.485492 74.5716 1.27467 74.5716 2.24359C74.5716 3.21251 75.4181 4.00169 76.4574 4.00169C77.4968 4.00169 78.3433 3.21251 78.3433 2.24359C78.3433 1.27467 77.4968 0.485492 76.4574 0.485492Z" fill="#00FFFF"/>
</g>
<g id="Group_5">
<path id="Vector_10" d="M79.9521 4.16282L79.8834 4.27438C79.6086 4.71236 79.0014 4.8611 78.5316 4.60493C78.1859 4.41693 77.8535 4.21034 77.5278 3.99341C77.202 3.77649 76.8829 3.58643 76.586 3.35918C76.2646 3.1154 76.0918 2.73114 76.1095 2.34274C76.1295 1.95435 76.4353 1.57629 76.8607 1.72297C77.1954 1.83866 77.592 1.9998 77.9067 2.14441C78.4629 2.40059 79.0635 2.60718 79.5975 2.89848C80.0673 3.15465 80.2269 3.72071 79.9521 4.15869V4.16282Z" fill="white"/>
<path id="Vector_11" d="M79.0258 5.09043C78.7909 5.09043 78.5538 5.03465 78.3366 4.91689C78.022 4.74542 77.694 4.54709 77.304 4.28885C77.2198 4.23307 77.1356 4.17935 77.0513 4.12564C76.8142 3.97276 76.5705 3.81575 76.34 3.64015C75.9278 3.32613 75.6973 2.83651 75.7239 2.33035C75.7417 1.97295 75.9278 1.6424 76.2092 1.46887C76.4441 1.32425 76.7212 1.29739 76.9937 1.39243C77.3328 1.51018 77.7361 1.67339 78.0751 1.82834C78.279 1.92337 78.4918 2.01014 78.7023 2.09897C79.0635 2.24978 79.438 2.40473 79.7881 2.59479C80.1028 2.76626 80.3289 3.0431 80.4241 3.37571C80.5172 3.70626 80.4685 4.05127 80.2823 4.34669L80.2136 4.45825C79.9588 4.86524 79.4978 5.09249 79.0258 5.09249V5.09043ZM76.6768 2.05352C76.6569 2.05352 76.6436 2.05972 76.6347 2.06592C76.5727 2.10517 76.5018 2.22086 76.4951 2.36341C76.4818 2.64437 76.6059 2.91294 76.8297 3.08442C77.0358 3.24143 77.2663 3.39017 77.4901 3.53479C77.5765 3.59057 77.663 3.64635 77.7494 3.70213C78.1195 3.94591 78.4297 4.13597 78.7267 4.29505C79.0125 4.45206 79.3848 4.36116 79.5532 4.09259L79.6219 3.98103C79.7904 3.71246 79.6928 3.36745 79.4048 3.2125C79.0901 3.04103 78.751 2.90055 78.392 2.7518C78.1704 2.6609 77.9511 2.56794 77.7361 2.46877C77.4236 2.32622 77.038 2.16921 76.7278 2.06178C76.7079 2.05352 76.6901 2.05146 76.679 2.05146L76.6768 2.05352Z" fill="#003467"/>
</g>
<g id="Group_6">
<path id="Vector_12" d="M96.7053 20.3018C95.6771 20.9051 94.4427 20.6861 93.2018 20.4196C91.9076 20.1428 90.6134 19.2523 89.6229 18.4632C88.9049 17.8909 89.1885 16.9736 89.1309 16.1886C89.0711 15.3829 89.0135 14.5772 88.9536 13.7715C88.8783 12.7447 88.8029 11.7179 88.7276 10.6912L89.993 8.74506C90.2899 8.28849 90.8638 8.22445 91.2694 8.60251L99.4 16.1906C99.8321 16.6018 97.6449 19.4569 97.348 19.7792C97.1441 19.9981 96.9291 20.1696 96.7031 20.3018H96.7053Z" fill="white"/>
<path id="Vector_13" d="M95.143 21.0456C94.4915 21.0456 93.8112 20.9195 93.1176 20.7708C92.0228 20.5373 90.7974 19.8721 89.3747 18.7379C88.6988 18.1987 88.7254 17.4529 88.7476 16.7939C88.7542 16.5894 88.7608 16.3952 88.7476 16.2134L88.3376 10.6044L89.665 8.56119C89.8689 8.24924 90.1902 8.04678 90.5447 8.00546C90.9015 7.96414 91.265 8.09016 91.542 8.35047C98.5601 14.8994 99.5308 15.8064 99.6748 15.9427C99.9673 16.2196 99.9607 16.7112 98.9767 18.209C98.4427 19.023 97.8133 19.8287 97.6405 20.0167C97.4189 20.2564 97.1729 20.4547 96.9092 20.6096C96.3574 20.9319 95.7635 21.0476 95.1408 21.0476L95.143 21.0456ZM89.1221 10.7821L89.5165 16.1658C89.532 16.3828 89.5254 16.6038 89.5165 16.8187C89.4966 17.3868 89.4788 17.8764 89.8733 18.1925C91.2007 19.2503 92.3176 19.8638 93.2882 20.0725C94.527 20.3369 95.6217 20.5146 96.4992 20.0002C96.6987 19.8845 96.8848 19.7316 97.0577 19.5457C97.4898 19.0788 99.0299 16.9261 99.072 16.3931C98.3673 15.7361 90.9968 8.85662 90.9968 8.85662C90.886 8.75332 90.7597 8.70374 90.6356 8.7182C90.5137 8.73266 90.4029 8.8091 90.3209 8.93306L89.1198 10.7821H89.1221Z" fill="#003467"/>
</g>
<g id="Group_7">
<path id="Vector_14" d="M80.3875 4.28987L80.3171 4.40229C80.0421 4.84183 80.2013 5.40603 80.6728 5.66247L82.5754 6.69729C83.0469 6.95373 83.6521 6.80529 83.9271 6.36575L83.9975 6.25333C84.2725 5.81379 84.1133 5.24959 83.6418 4.99315L81.7392 3.95833C81.2678 3.70189 80.6626 3.85033 80.3875 4.28987Z" fill="white"/>
<path id="Vector_15" d="M83.0767 7.18529C82.8418 7.18529 82.6047 7.12951 82.3875 7.01175L80.484 5.97672C80.1693 5.80525 79.9433 5.52842 79.848 5.19581C79.7549 4.86526 79.8036 4.52025 79.9898 4.22482L80.0585 4.11326C80.4396 3.50382 81.284 3.29722 81.9377 3.65256L83.8413 4.68759C84.495 5.04293 84.7166 5.82798 84.3354 6.43949L84.2667 6.55105C84.0119 6.95804 83.551 7.18529 83.0767 7.18529ZM81.2463 4.1959C81.038 4.1959 80.8363 4.29506 80.7233 4.4748L80.6546 4.58636C80.5726 4.71651 80.5527 4.86732 80.5926 5.01194C80.6347 5.15862 80.7322 5.28051 80.8718 5.35488L82.7753 6.38991C83.0612 6.54692 83.4335 6.45602 83.6019 6.18745L83.6706 6.07589C83.839 5.80732 83.7415 5.46231 83.4534 5.3053L81.5499 4.27027C81.4546 4.21862 81.3504 4.19383 81.2463 4.19383V4.1959Z" fill="#003467"/>
</g>
<g id="Group_8">
<path id="Vector_16" d="M83.0124 14.3974L82.9415 14.5482C82.6623 15.1412 82.0019 15.4469 81.4767 15.2321C81.0911 15.073 80.7122 14.8623 80.3466 14.6681C79.6352 14.2921 78.6712 14.1185 79.1964 13.0091L79.2673 12.8583C79.6219 12.1104 80.1759 12.1208 80.7654 12.3315C81.3593 12.5443 81.962 12.7344 82.5648 12.9286C83.09 13.1455 83.2917 13.8066 83.0124 14.3974Z" fill="white"/>
<path id="Vector_17" d="M81.8291 15.6576C81.6562 15.6576 81.4834 15.6266 81.3194 15.5585C80.9848 15.4201 80.6612 15.2486 80.3488 15.0812L80.156 14.9779C80.0452 14.9201 79.9299 14.8685 79.8147 14.8147C79.1942 14.5317 78.2546 14.1061 78.8441 12.8604C78.8818 12.7819 78.9017 12.7364 78.915 12.7096C79.2984 11.8977 79.9676 11.6559 80.9028 11.9927C81.4213 12.1786 81.962 12.3522 82.4828 12.5174L82.7199 12.5939C83.0767 12.7406 83.347 13.0401 83.4601 13.4182C83.5687 13.7776 83.5354 14.1743 83.3626 14.5358L83.2916 14.6866C83.008 15.2858 82.4163 15.6535 81.8291 15.6535V15.6576ZM79.6042 13.0318L79.5466 13.1537C79.2696 13.7384 79.4712 13.8644 80.1515 14.1722C80.2801 14.2301 80.4108 14.29 80.5327 14.3561L80.7299 14.4615C81.0246 14.6185 81.3305 14.7817 81.6296 14.9056C81.9576 15.0399 82.3964 14.8106 82.587 14.4057L82.6579 14.2549C82.7554 14.0483 82.7775 13.8169 82.7177 13.6227C82.6667 13.4533 82.5604 13.3273 82.4185 13.2653L82.2302 13.2054C81.7028 13.036 81.1554 12.8624 80.6236 12.6703C80.0762 12.474 79.8302 12.5546 79.6175 13.0071L79.6042 13.036V13.0318Z" fill="#003467"/>
</g>
<g id="Group_9">
<path id="Vector_18" d="M83.1402 14.4926L83.0553 14.6722C82.7158 15.3905 83.0652 16.2295 83.8357 16.546L86.9404 17.8214C87.711 18.1379 88.6109 17.8122 88.9504 17.0938L89.0353 16.9142C89.3748 16.1959 89.0254 15.3569 88.2549 15.0404L85.1502 13.765C84.3796 13.4485 83.4797 13.7742 83.1402 14.4926Z" fill="white"/>
<path id="Vector_19" d="M87.5598 18.3061C87.3027 18.3061 87.0435 18.2586 86.793 18.1553L83.6862 16.8786C83.2208 16.6885 82.864 16.3373 82.6779 15.8931C82.4939 15.4489 82.5028 14.9655 82.7089 14.5317L82.7953 14.3499C82.9992 13.916 83.3759 13.5834 83.8524 13.4099C84.3288 13.2384 84.8474 13.2487 85.3127 13.4388L88.4196 14.7155C88.885 14.9056 89.2418 15.2568 89.4279 15.701C89.6118 16.1452 89.6008 16.6286 89.3969 17.0624L89.3105 17.2442C88.9958 17.9095 88.2955 18.3061 87.562 18.3061H87.5598ZM84.546 14.0069C84.4064 14.0069 84.2668 14.0317 84.1316 14.0792C83.8479 14.1825 83.6241 14.3809 83.5022 14.6391L83.4158 14.8209C83.2939 15.0791 83.2873 15.3663 83.3981 15.6328C83.5089 15.8972 83.7216 16.1059 83.9986 16.2216L87.1055 17.4983C87.6795 17.7338 88.3531 17.4901 88.6058 16.955L88.6922 16.7732C88.8141 16.515 88.8207 16.2278 88.7099 15.9613C88.5991 15.6969 88.3864 15.4882 88.1094 15.3725L85.0025 14.0958C84.8562 14.0358 84.7033 14.0069 84.5482 14.0069H84.546Z" fill="#003467"/>
</g>
<g id="Group_10">
<path id="Vector_20" d="M91.3159 9.97219L91.2251 10.1168C90.8705 10.6849 90.117 10.8957 89.5497 10.5878L84.9182 8.15625C84.3531 7.84842 84.1803 7.13155 84.5349 6.56549L84.6257 6.42087C84.9803 5.85274 85.7337 5.64202 86.301 5.94984L90.9325 8.38143C91.4976 8.68925 91.6705 9.40613 91.3159 9.97219Z" fill="white"/>
<path id="Vector_21" d="M90.117 11.0878C89.8556 11.0878 89.5941 11.0258 89.3569 10.8977L84.7321 8.46821C83.9764 8.05709 83.7415 7.1233 84.2047 6.3837L84.2955 6.23908C84.7587 5.49948 85.7448 5.23091 86.4961 5.6379L91.1231 8.06742C91.8788 8.47854 92.1137 9.41234 91.6505 10.1519L91.5597 10.2966C91.2428 10.8027 90.6821 11.0878 90.1193 11.0878H90.117ZM85.7315 6.16471C85.4324 6.16471 85.131 6.32379 84.9581 6.59855L84.8673 6.74317C84.6191 7.13982 84.7299 7.63358 85.1132 7.8443L89.7403 10.2738C90.1303 10.4866 90.6445 10.3317 90.8949 9.93502L90.9857 9.7904C91.2339 9.39375 91.1253 8.89999 90.7398 8.68927L86.1149 6.25974C85.9952 6.1957 85.8645 6.16471 85.7337 6.16471H85.7315Z" fill="#003467"/>
</g>
<g id="Group_11">
<path id="Vector_22" d="M80.0806 5.171C80.5934 5.171 81.0091 4.78345 81.0091 4.30538C81.0091 3.82731 80.5934 3.43976 80.0806 3.43976C79.5678 3.43976 79.1521 3.82731 79.1521 4.30538C79.1521 4.78345 79.5678 5.171 80.0806 5.171Z" fill="#00FFFF"/>
<path id="Vector_23" d="M80.0784 5.41478C79.8856 5.41478 79.6906 5.3714 79.5111 5.27843C79.2319 5.13588 79.0302 4.90243 78.9394 4.61734C78.8485 4.33224 78.884 4.03268 79.0369 3.77444C79.1898 3.51413 79.4402 3.32614 79.746 3.24143C80.0518 3.1588 80.3732 3.18978 80.6502 3.33233C81.2263 3.62569 81.4391 4.30125 81.1244 4.83632C80.9094 5.20406 80.4995 5.41272 80.0784 5.41272V5.41478ZM80.0829 3.68147C80.0208 3.68147 79.9565 3.68974 79.8945 3.70627C79.7239 3.75378 79.582 3.85914 79.4956 4.00582C79.4092 4.1525 79.3915 4.31984 79.4402 4.48099C79.489 4.64213 79.6042 4.77228 79.7615 4.85285C80.0851 5.01813 80.4906 4.90657 80.6679 4.60494C80.8452 4.30332 80.7255 3.92525 80.402 3.75998C80.3022 3.70833 80.1937 3.68354 80.0829 3.68354V3.68147Z" fill="#003467"/>
</g>
<g id="Group_12">
<path id="Vector_24" d="M80.0807 4.65243C80.2863 4.65243 80.453 4.49704 80.453 4.30536C80.453 4.11367 80.2863 3.95828 80.0807 3.95828C79.8751 3.95828 79.7084 4.11367 79.7084 4.30536C79.7084 4.49704 79.8751 4.65243 80.0807 4.65243Z" fill="white"/>
<path id="Vector_25" d="M80.0807 4.6917C80.0142 4.6917 79.9455 4.67724 79.8835 4.64418C79.786 4.5946 79.7173 4.51403 79.684 4.41486C79.6508 4.3157 79.6641 4.2124 79.7173 4.1215C79.7704 4.0306 79.8569 3.96656 79.9632 3.93557C80.0696 3.90665 80.1804 3.91698 80.2779 3.96656C80.4774 4.06779 80.5527 4.3033 80.4419 4.48924C80.3666 4.61732 80.2247 4.68963 80.0785 4.68963L80.0807 4.6917ZM80.0807 3.99755C80.0497 3.99755 80.0186 4.00168 79.9876 4.00994C79.9034 4.03267 79.8325 4.08638 79.7904 4.15662C79.7483 4.22893 79.7394 4.31157 79.7638 4.39007C79.7882 4.46858 79.8458 4.53469 79.9211 4.57394C80.0807 4.65451 80.2823 4.6008 80.3688 4.45205C80.4552 4.3033 80.3976 4.11531 80.238 4.03473C80.1893 4.00994 80.1339 3.99755 80.0807 3.99755Z" fill="#003467"/>
</g>
<g id="Group_13">
<path id="Vector_26" d="M84.3443 7.3423C84.8571 7.3423 85.2728 6.95474 85.2728 6.47667C85.2728 5.99861 84.8571 5.61105 84.3443 5.61105C83.8315 5.61105 83.4158 5.99861 83.4158 6.47667C83.4158 6.95474 83.8315 7.3423 84.3443 7.3423Z" fill="#00FFFF"/>
<path id="Vector_27" d="M84.3421 7.58607C84.1449 7.58607 83.9498 7.54062 83.7726 7.44972C83.1964 7.15636 82.9837 6.48081 83.2983 5.94573C83.613 5.40859 84.3376 5.21233 84.9116 5.50362C85.1908 5.64617 85.3925 5.87962 85.4833 6.16472C85.5742 6.44982 85.5387 6.74937 85.3858 7.00761C85.2329 7.26792 84.9825 7.45592 84.6767 7.54062C84.5659 7.57161 84.4529 7.58607 84.3399 7.58607H84.3421ZM84.3465 5.85483C84.1094 5.85483 83.8811 5.97259 83.7593 6.17918C83.582 6.48081 83.7016 6.85887 84.0252 7.02414C84.1825 7.10471 84.362 7.12124 84.5327 7.07579C84.7033 7.02827 84.8451 6.92291 84.9315 6.77623C85.018 6.62955 85.0357 6.46221 84.9869 6.30314C84.9382 6.14406 84.823 6.01184 84.6656 5.93127C84.5637 5.87962 84.4551 5.85483 84.3465 5.85483Z" fill="#003467"/>
</g>
<g id="Group_14">
<path id="Vector_28" d="M84.3443 6.82373C84.5499 6.82373 84.7166 6.66834 84.7166 6.47665C84.7166 6.28497 84.5499 6.12958 84.3443 6.12958C84.1387 6.12958 83.972 6.28497 83.972 6.47665C83.972 6.66834 84.1387 6.82373 84.3443 6.82373Z" fill="white"/>
<path id="Vector_29" d="M84.3443 6.86299C84.2756 6.86299 84.2091 6.84647 84.147 6.81548C83.9476 6.71425 83.8723 6.47873 83.9831 6.2928C84.0362 6.2019 84.1227 6.13579 84.229 6.10687C84.3354 6.07794 84.4462 6.08827 84.5437 6.13785C84.6412 6.18744 84.7099 6.26801 84.7432 6.36717C84.7764 6.46634 84.7631 6.56963 84.7099 6.66053C84.6567 6.75143 84.5703 6.81548 84.4639 6.84647C84.4263 6.85679 84.3864 6.86299 84.3465 6.86299H84.3443ZM84.3443 6.16884C84.3132 6.16884 84.2822 6.17297 84.2512 6.18124C84.167 6.20396 84.0961 6.25768 84.054 6.32792C83.9675 6.47667 84.0252 6.66466 84.1847 6.74524C84.2623 6.78449 84.3509 6.79275 84.4351 6.77003C84.5193 6.7473 84.5903 6.69359 84.6324 6.62335C84.6745 6.55104 84.6833 6.4684 84.6589 6.3899C84.6346 6.31139 84.577 6.24528 84.5016 6.20603C84.4529 6.18124 84.3975 6.16884 84.3443 6.16884Z" fill="#003467"/>
</g>
<g id="Group_15">
<g id="Group_16">
<path id="Vector_30" d="M86.9148 11.346C87.4277 11.346 87.8434 10.9585 87.8434 10.4804C87.8434 10.0024 87.4277 9.61481 86.9148 9.61481C86.402 9.61481 85.9863 10.0024 85.9863 10.4804C85.9863 10.9585 86.402 11.346 86.9148 11.346Z" fill="#00FFFF"/>
<path id="Vector_31" d="M86.9127 11.5898C86.7199 11.5898 86.5249 11.5464 86.3454 11.4535C86.0661 11.3109 85.8645 11.0775 85.7736 10.7924C85.6828 10.5073 85.7182 10.2077 85.8711 9.94949C86.024 9.68918 86.2744 9.50118 86.5803 9.41648C86.8861 9.33385 87.2074 9.36483 87.4844 9.50738C88.0606 9.80074 88.2733 10.4763 87.9586 11.0114C87.7437 11.3791 87.3337 11.5878 86.9127 11.5878V11.5898ZM86.9171 9.85859C86.8528 9.85859 86.7908 9.86685 86.7287 9.88338C86.5581 9.9309 86.4163 10.0363 86.3298 10.1829C86.2434 10.3296 86.2257 10.497 86.2744 10.656C86.3232 10.8151 86.4384 10.9473 86.5958 11.0279C86.9193 11.1932 87.3248 11.0816 87.5021 10.78C87.6794 10.4784 87.5597 10.1003 87.2362 9.93503C87.1365 9.88338 87.0279 9.85859 86.9171 9.85859Z" fill="#003467"/>
</g>
<g id="Group_17">
<path id="Vector_32" d="M86.9148 10.8275C87.1204 10.8275 87.2871 10.6721 87.2871 10.4804C87.2871 10.2887 87.1204 10.1333 86.9148 10.1333C86.7092 10.1333 86.5425 10.2887 86.5425 10.4804C86.5425 10.6721 86.7092 10.8275 86.9148 10.8275Z" fill="white"/>
<path id="Vector_33" d="M86.9148 10.8667C86.8462 10.8667 86.7797 10.8502 86.7176 10.8192C86.6201 10.7696 86.5514 10.6891 86.5182 10.5899C86.4849 10.4907 86.4982 10.3875 86.5514 10.2966C86.6046 10.2057 86.691 10.1416 86.7974 10.1106C86.9038 10.0817 87.0146 10.092 87.1121 10.1416C87.3115 10.2428 87.3869 10.4784 87.2761 10.6643C87.2229 10.7552 87.1365 10.8213 87.0301 10.8502C86.9924 10.8605 86.9525 10.8667 86.9126 10.8667H86.9148ZM86.9148 10.1726C86.8838 10.1726 86.8528 10.1767 86.8218 10.185C86.7376 10.2077 86.6667 10.2614 86.6245 10.3317C86.5824 10.404 86.5736 10.4866 86.598 10.5651C86.6223 10.6436 86.6799 10.7097 86.7553 10.749C86.8329 10.7882 86.9215 10.7965 87.0057 10.7738C87.0899 10.7511 87.1608 10.6973 87.2029 10.6271C87.2894 10.4784 87.2317 10.2904 87.0722 10.2098C87.0234 10.185 86.968 10.1726 86.9148 10.1726Z" fill="#003467"/>
</g>
</g>
<g id="Group_18">
<g id="Group_19">
<path id="Vector_34" d="M82.9659 15.2961C83.4787 15.2961 83.8944 14.9085 83.8944 14.4304C83.8944 13.9524 83.4787 13.5648 82.9659 13.5648C82.4531 13.5648 82.0374 13.9524 82.0374 14.4304C82.0374 14.9085 82.4531 15.2961 82.9659 15.2961Z" fill="#00FFFF"/>
<path id="Vector_35" d="M82.9637 15.5399C82.7487 15.5399 82.5316 15.4861 82.3365 15.3725C81.7803 15.0482 81.6097 14.3623 81.9576 13.8437C82.3055 13.3252 83.0412 13.1661 83.5975 13.4905C83.8678 13.6475 84.054 13.8933 84.1249 14.1805C84.1958 14.4676 84.1426 14.7672 83.9742 15.0172C83.7482 15.3539 83.3604 15.5378 82.9637 15.5378V15.5399ZM82.9659 13.8065C82.9149 13.8065 82.864 13.8127 82.8152 13.8231C82.6401 13.8603 82.4939 13.9594 82.3986 14.0999C82.2036 14.3912 82.2989 14.7755 82.6113 14.9593C82.9238 15.1411 83.336 15.0523 83.5332 14.761C83.6285 14.6205 83.6573 14.4532 83.6174 14.29C83.5775 14.1288 83.4712 13.9904 83.3205 13.9016C83.2119 13.8396 83.0922 13.8065 82.9681 13.8065H82.9659Z" fill="#003467"/>
</g>
<g id="Group_20">
<path id="Vector_36" d="M82.9659 14.7775C83.1715 14.7775 83.3382 14.6221 83.3382 14.4304C83.3382 14.2388 83.1715 14.0834 82.9659 14.0834C82.7603 14.0834 82.5936 14.2388 82.5936 14.4304C82.5936 14.6221 82.7603 14.7775 82.9659 14.7775Z" fill="white"/>
<path id="Vector_37" d="M82.9637 14.8168C82.8883 14.8168 82.813 14.7982 82.7465 14.7589C82.6534 14.7052 82.587 14.6185 82.5626 14.5193C82.5382 14.4181 82.5559 14.3148 82.6158 14.228C82.6734 14.1412 82.7665 14.0793 82.8728 14.0565C82.9814 14.0338 83.0922 14.0503 83.1853 14.1061C83.3781 14.2177 83.4379 14.4573 83.316 14.6371C83.2385 14.7548 83.1033 14.8189 82.9659 14.8189L82.9637 14.8168ZM82.9659 14.1226C82.9415 14.1226 82.9149 14.1247 82.8906 14.1309C82.8041 14.1495 82.731 14.197 82.6845 14.2673C82.6379 14.3375 82.6224 14.4201 82.6424 14.4986C82.6623 14.5792 82.7133 14.6474 82.7886 14.6908C82.9437 14.7817 83.1476 14.7362 83.2429 14.5937C83.3382 14.4491 83.2917 14.259 83.1388 14.1702C83.0856 14.1392 83.0257 14.1226 82.9637 14.1226H82.9659Z" fill="#003467"/>
</g>
</g>
<g id="Group_21">
<g id="Group_22">
<path id="Vector_38" d="M88.9337 18.6822C89.9409 18.6822 90.7574 17.9209 90.7574 16.9819C90.7574 16.0429 89.9409 15.2816 88.9337 15.2816C87.9264 15.2816 87.1099 16.0429 87.1099 16.9819C87.1099 17.9209 87.9264 18.6822 88.9337 18.6822Z" fill="#00FFFF"/>
<path id="Vector_39" d="M88.9292 18.9259C88.5858 18.9259 88.2445 18.8453 87.932 18.6863C87.4423 18.4384 87.0877 18.0272 86.9304 17.5294C86.7731 17.0315 86.8351 16.5067 87.101 16.0502C87.6528 15.1102 88.9204 14.7631 89.9287 15.2775C90.4184 15.5254 90.773 15.9365 90.9281 16.4344C91.0832 16.9323 91.0234 17.4571 90.7575 17.9136C90.4893 18.3681 90.0483 18.7007 89.5143 18.8474C89.3193 18.9011 89.122 18.9259 88.9248 18.9259H88.9292ZM88.9337 15.5233C88.7852 15.5233 88.6367 15.544 88.4905 15.5833C88.0894 15.6928 87.7592 15.9407 87.5597 16.2836C87.3603 16.6245 87.3138 17.0191 87.4312 17.393C87.5487 17.7669 87.8146 18.0748 88.1824 18.2607C88.5503 18.4466 88.9714 18.49 89.3725 18.3805C89.7736 18.271 90.1037 18.0231 90.3032 17.6802C90.5026 17.3393 90.5492 16.9447 90.4317 16.5708C90.3143 16.1968 90.0483 15.889 89.6805 15.7031C89.4478 15.5853 89.1907 15.5233 88.9337 15.5233Z" fill="#003467"/>
</g>
<g id="Group_23">
<path id="Vector_40" d="M88.9337 17.831C89.4367 17.831 89.8445 17.4508 89.8445 16.9819C89.8445 16.5129 89.4367 16.1328 88.9337 16.1328C88.4307 16.1328 88.0229 16.5129 88.0229 16.9819C88.0229 17.4508 88.4307 17.831 88.9337 17.831Z" fill="white"/>
<path id="Vector_41" d="M88.9315 17.9529C88.7586 17.9529 88.588 17.9136 88.4329 17.833C87.9298 17.5769 87.7415 16.986 88.0185 16.515C88.2932 16.046 88.927 15.8704 89.4323 16.1287C89.676 16.2526 89.8533 16.4592 89.9331 16.7071C90.0129 16.955 89.9819 17.2195 89.8467 17.4467C89.7137 17.674 89.4921 17.8392 89.2262 17.9136C89.1287 17.9405 89.029 17.9529 88.9315 17.9529ZM88.9337 16.2526C88.6567 16.2526 88.3885 16.389 88.2467 16.6307C88.0406 16.9839 88.1802 17.4261 88.5592 17.6203C88.7431 17.7132 88.9536 17.7339 89.1531 17.6802C89.3525 17.6244 89.5187 17.5004 89.6184 17.331C89.7182 17.1595 89.7403 16.9633 89.6827 16.7774C89.6251 16.5914 89.4899 16.4365 89.3082 16.3435C89.1885 16.2836 89.0622 16.2547 88.9359 16.2547L88.9337 16.2526Z" fill="#003467"/>
</g>
</g>
<g id="Group_24">
<g id="Group_25">
<path id="Vector_42" d="M89.8445 11.3151C90.8517 11.3151 91.6683 10.5538 91.6683 9.6148C91.6683 8.67578 90.8517 7.91455 89.8445 7.91455C88.8372 7.91455 88.0207 8.67578 88.0207 9.6148C88.0207 10.5538 88.8372 11.3151 89.8445 11.3151Z" fill="#00FFFF"/>
<path id="Vector_43" d="M89.84 11.5568C89.5032 11.5568 89.1619 11.4803 88.845 11.3192C87.8367 10.8048 87.4644 9.62306 88.0162 8.68306C88.568 7.74307 89.8356 7.39599 90.8439 7.91041C91.8522 8.42482 92.2245 9.60653 91.6727 10.5465C91.2937 11.1911 90.578 11.5568 89.84 11.5568ZM89.8467 8.15832C89.2927 8.15832 88.7564 8.43309 88.4727 8.91651C88.0606 9.62099 88.3376 10.5093 89.0954 10.8936C89.8511 11.2779 90.804 11.0176 91.2162 10.3131C91.6306 9.60859 91.3514 8.72025 90.5935 8.33599C90.3564 8.21616 90.0993 8.15832 89.8467 8.15832Z" fill="#003467"/>
</g>
<g id="Group_26">
<path id="Vector_44" d="M89.8445 10.4639C90.3475 10.4639 90.7553 10.0838 90.7553 9.61481C90.7553 9.14587 90.3475 8.76572 89.8445 8.76572C89.3415 8.76572 88.9337 9.14587 88.9337 9.61481C88.9337 10.0838 89.3415 10.4639 89.8445 10.4639Z" fill="white"/>
<path id="Vector_45" d="M89.8423 10.5858C89.6738 10.5858 89.5032 10.5465 89.3437 10.468C89.0999 10.3441 88.9226 10.1375 88.8428 9.88957C88.7631 9.64165 88.7941 9.37722 88.9293 9.14997C89.0622 8.92271 89.2838 8.75744 89.5497 8.68307C89.8179 8.61076 90.0993 8.63762 90.3431 8.76364C90.8461 9.01981 91.0323 9.61067 90.7575 10.0817C90.5691 10.404 90.2101 10.5878 89.8423 10.5878V10.5858ZM89.8467 8.88553C89.7736 8.88553 89.6982 8.89586 89.6251 8.91445C89.4257 8.97023 89.2594 9.09419 89.1597 9.26359C89.06 9.433 89.0378 9.63133 89.0955 9.81726C89.1531 10.0032 89.2883 10.1581 89.47 10.2511C89.8467 10.4432 90.3231 10.3131 90.5314 9.96187C90.7375 9.6086 90.5979 9.16649 90.2212 8.97436C90.1038 8.91445 89.9774 8.88553 89.8467 8.88553Z" fill="#003467"/>
</g>
</g>
<g id="Group_27">
<path id="Vector_46" d="M100.089 18.9714C100.739 18.3392 100.796 17.2587 100.22 16.5687L99.2471 15.4035C98.6709 14.7135 97.8289 14.7755 97.3724 15.5399L95.0566 19.4362C94.6023 20.2006 94.8217 21.1158 95.5463 21.4711C96.271 21.8265 97.3923 21.5992 98.0416 20.9671L100.089 18.9714Z" fill="white"/>
<path id="Vector_47" d="M96.3441 22C95.9962 22 95.6593 21.9318 95.3668 21.7893C94.9591 21.5889 94.6555 21.2397 94.5181 20.808C94.3585 20.3101 94.4317 19.7461 94.7197 19.2627L97.0355 15.3663C97.3169 14.8953 97.7535 14.604 98.2344 14.5689C98.7153 14.5358 99.1961 14.759 99.5507 15.1845L100.524 16.3497C101.213 17.1761 101.142 18.4632 100.366 19.2213L98.3186 21.217C97.8 21.7211 97.0488 22 96.3419 22H96.3441ZM98.3341 15.2837C98.3208 15.2837 98.3075 15.2837 98.2942 15.2837C98.0726 15.3002 97.8643 15.4531 97.7092 15.7134L95.3934 19.6097C95.2051 19.9258 95.1541 20.2874 95.256 20.6034C95.3336 20.8493 95.502 21.0435 95.7258 21.155C96.2998 21.436 97.2327 21.2377 97.7646 20.7212L99.8122 18.7255C100.326 18.2256 100.375 17.3393 99.9186 16.7918L98.9457 15.6266C98.7618 15.4056 98.5468 15.2858 98.3363 15.2858L98.3341 15.2837Z" fill="#003467"/>
</g>
</g>
</g>
</g>
<defs>
<linearGradient id="paint0_linear_359_587" x1="21.48" y1="8.6211" x2="98.8106" y2="8.6211" gradientUnits="userSpaceOnUse">
<stop stop-color="#00D4C2"/>
<stop offset="0.5" stop-color="#0046B4"/>
</linearGradient>
<linearGradient id="paint1_linear_359_587" x1="21.48" y1="9.02807" x2="98.8105" y2="9.02807" gradientUnits="userSpaceOnUse">
<stop stop-color="#00D4C2"/>
<stop offset="0.5" stop-color="#0046B4"/>
<stop offset="1" stop-color="#000046"/>
</linearGradient>
<linearGradient id="paint2_linear_359_587" x1="21.48" y1="8.67688" x2="98.8106" y2="8.67688" gradientUnits="userSpaceOnUse">
<stop stop-color="#00D4C2"/>
<stop offset="0.5" stop-color="#0046B4"/>
<stop offset="1" stop-color="#000046"/>
</linearGradient>
<clipPath id="clip0_359_587">
<rect width="101" height="22" fill="white"/>
</clipPath>
</defs>
</svg>
