<svg width="20" height="20" viewBox="0 0 20 20" fill="none" xmlns="http://www.w3.org/2000/svg">
<path d="M19.6297 17.9487L15.8032 14.3179C17.2301 12.8 18.1164 10.7897 18.1164 8.59487C18.1164 3.85641 14.0521 0 9.05822 0C4.06431 0 0 3.85641 0 8.59487C0 13.3333 4.06431 17.1897 9.05822 17.1897C10.8309 17.1897 12.474 16.6974 13.8576 15.8769L17.8354 19.6513C18.0732 19.8769 18.3975 20 18.7218 20C19.046 20 19.3703 19.8769 19.6081 19.6513C20.127 19.1795 20.127 18.4205 19.6297 17.9487ZM2.52938 8.59487C2.52938 5.18974 5.4479 2.4 9.05822 2.4C12.6685 2.4 15.5654 5.18974 15.5654 8.59487C15.5654 12 12.6469 14.7897 9.05822 14.7897C5.46952 14.7897 2.52938 12.0205 2.52938 8.59487Z" fill="#F6F6F6"/>
</svg>
